M48
; DRILL file {KiCad 6.0.4-6f826c9f35~116~ubuntu20.04.1} date lun 25 apr 2022, 13:09:12
; FORMAT={-:-/ absolute / inch / decimal}
; #@! TF.CreationDate,2022-04-25T13:09:12+02:00
; #@! TF.GenerationSoftware,Kicad,Pcbnew,6.0.4-6f826c9f35~116~ubuntu20.04.1
; #@! TF.FileFunction,Plated,1,2,PTH
FMAT,2
INCH
; #@! TA.AperFunction,Plated,PTH,ComponentDrill
T1C0.0118
; #@! TA.AperFunction,Plated,PTH,ViaDrill
T2C0.0157
; #@! TA.AperFunction,Plated,PTH,ComponentDrill
T3C0.0197
; #@! TA.AperFunction,Plated,PTH,ComponentDrill
T4C0.0394
; #@! TA.AperFunction,Plated,PTH,ComponentDrill
T5C0.0984
%
G90
G05
T1
X6.1579Y-3.6745
X6.1579Y-3.7256
X6.1579Y-3.7768
X6.1579Y-3.828
X6.1579Y-3.8792
X6.1579Y-3.9304
X6.1579Y-3.9815
X6.1699Y-4.2785
X6.1699Y-4.3296
X6.1699Y-4.3808
X6.1699Y-4.432
X6.1699Y-4.4832
X6.1699Y-4.5344
X6.1699Y-4.5855
X6.2091Y-3.6745
X6.2091Y-3.7256
X6.2091Y-3.7768
X6.2091Y-3.828
X6.2091Y-3.8792
X6.2091Y-3.9304
X6.2091Y-3.9815
X6.2211Y-4.2785
X6.2211Y-4.3296
X6.2211Y-4.3808
X6.2211Y-4.432
X6.2211Y-4.4832
X6.2211Y-4.5344
X6.2211Y-4.5855
X6.2603Y-3.6745
X6.2603Y-3.7256
X6.2603Y-3.7768
X6.2603Y-3.828
X6.2603Y-3.8792
X6.2603Y-3.9304
X6.2603Y-3.9815
X6.2723Y-4.2785
X6.2723Y-4.3296
X6.2723Y-4.3808
X6.2723Y-4.432
X6.2723Y-4.4832
X6.2723Y-4.5344
X6.2723Y-4.5855
T2
X5.856Y-3.652
X5.856Y-3.686
X5.8777Y-4.262
X5.8777Y-4.296
X5.89Y-3.652
X5.89Y-3.686
X5.9117Y-4.262
X5.9117Y-4.296
X5.914Y-4.584
X5.914Y-4.618
X5.918Y-3.9965
X5.918Y-4.0305
X5.924Y-3.652
X5.924Y-3.686
X5.9457Y-4.262
X5.9457Y-4.296
X5.948Y-4.584
X5.948Y-4.618
X5.952Y-3.9965
X5.952Y-4.0305
X5.982Y-4.584
X5.982Y-4.618
X5.986Y-3.9965
X5.986Y-4.0305
X6.386Y-3.938
X6.3868Y-3.9773
X6.388Y-3.674
X6.39Y-3.804
X6.39Y-4.4715
X6.396Y-4.538
X6.396Y-4.5774
X6.398Y-3.732
X6.414Y-4.28
X6.4195Y-4.3975
X6.426Y-4.4715
X6.432Y-3.804
X6.436Y-4.34
X6.45Y-4.074
X6.456Y-4.676
X6.464Y-4.4715
X6.48Y-3.78
X6.48Y-3.816
X6.48Y-3.856
X6.482Y-4.074
X6.502Y-4.4715
X6.504Y-4.616
X6.514Y-3.816
X6.516Y-3.78
X6.516Y-3.856
X6.522Y-3.964
X6.552Y-3.78
X6.552Y-3.816
X6.552Y-3.856
X6.7272Y-4.1492
X6.8088Y-4.2068
X7.235Y-4.247
X7.235Y-4.325
X7.235Y-4.393
X7.235Y-4.469
X7.237Y-4.525
X7.275Y-4.247
X7.275Y-4.325
X7.275Y-4.393
X7.275Y-4.469
X7.277Y-4.525
X7.309Y-4.247
X7.309Y-4.325
X7.309Y-4.393
X7.309Y-4.469
X7.311Y-4.525
X7.343Y-4.247
X7.343Y-4.325
X7.343Y-4.393
X7.343Y-4.469
X7.345Y-4.525
X7.379Y-4.247
X7.379Y-4.325
X7.379Y-4.393
X7.379Y-4.469
X7.381Y-4.525
T3
X5.5262Y-3.5
X5.5262Y-4.8
X5.5478Y-3.4478
X5.5478Y-3.5522
X5.5478Y-4.7478
X5.5478Y-4.8522
X5.6Y-3.4262
X5.6Y-3.5738
X5.6Y-4.7262
X5.6Y-4.8738
X5.6522Y-3.4478
X5.6522Y-3.5522
X5.6522Y-4.7478
X5.6522Y-4.8522
X5.6738Y-3.5
X5.6738Y-4.8
X7.2262Y-3.5
X7.2262Y-4.8
X7.2478Y-3.4478
X7.2478Y-3.5522
X7.2478Y-4.7478
X7.2478Y-4.8522
X7.3Y-3.4262
X7.3Y-3.5738
X7.3Y-4.7262
X7.3Y-4.8738
X7.3522Y-3.4478
X7.3522Y-3.5522
X7.3522Y-4.7478
X7.3522Y-4.8522
X7.3738Y-3.5
X7.3738Y-4.8
T4
X5.55Y-3.7526
X5.55Y-3.8526
X5.55Y-3.9526
X5.55Y-4.3526
X5.55Y-4.4526
X5.55Y-4.5526
X5.8622Y-4.7798
X5.9622Y-4.7798
X6.0622Y-4.7798
X6.1622Y-4.7798
X6.2622Y-4.7798
X6.3622Y-4.7798
X6.4622Y-4.7798
X6.608Y-4.7798
X6.708Y-4.7798
X6.808Y-4.7798
X6.908Y-4.7798
X7.008Y-4.7798
X7.108Y-4.7798
T5
X5.6Y-3.5
X5.6Y-4.8
X7.3Y-3.5
X7.3Y-4.8
T0
M30
