G04 #@! TF.GenerationSoftware,KiCad,Pcbnew,6.0.4-6f826c9f35~116~ubuntu20.04.1*
G04 #@! TF.CreationDate,2022-04-25T13:09:09+02:00*
G04 #@! TF.ProjectId,foc,666f632e-6b69-4636-9164-5f7063625858,rev?*
G04 #@! TF.SameCoordinates,Original*
G04 #@! TF.FileFunction,Paste,Top*
G04 #@! TF.FilePolarity,Positive*
%FSLAX46Y46*%
G04 Gerber Fmt 4.6, Leading zero omitted, Abs format (unit mm)*
G04 Created by KiCad (PCBNEW 6.0.4-6f826c9f35~116~ubuntu20.04.1) date 2022-04-25 13:09:09*
%MOMM*%
%LPD*%
G01*
G04 APERTURE LIST*
G04 Aperture macros list*
%AMRoundRect*
0 Rectangle with rounded corners*
0 $1 Rounding radius*
0 $2 $3 $4 $5 $6 $7 $8 $9 X,Y pos of 4 corners*
0 Add a 4 corners polygon primitive as box body*
4,1,4,$2,$3,$4,$5,$6,$7,$8,$9,$2,$3,0*
0 Add four circle primitives for the rounded corners*
1,1,$1+$1,$2,$3*
1,1,$1+$1,$4,$5*
1,1,$1+$1,$6,$7*
1,1,$1+$1,$8,$9*
0 Add four rect primitives between the rounded corners*
20,1,$1+$1,$2,$3,$4,$5,0*
20,1,$1+$1,$4,$5,$6,$7,0*
20,1,$1+$1,$6,$7,$8,$9,0*
20,1,$1+$1,$8,$9,$2,$3,0*%
G04 Aperture macros list end*
%ADD10C,0.010000*%
%ADD11RoundRect,0.225000X0.250000X-0.225000X0.250000X0.225000X-0.250000X0.225000X-0.250000X-0.225000X0*%
%ADD12RoundRect,0.225000X-0.250000X0.225000X-0.250000X-0.225000X0.250000X-0.225000X0.250000X0.225000X0*%
%ADD13RoundRect,0.250000X-1.000000X1.500000X-1.000000X-1.500000X1.000000X-1.500000X1.000000X1.500000X0*%
%ADD14RoundRect,0.225000X0.225000X0.250000X-0.225000X0.250000X-0.225000X-0.250000X0.225000X-0.250000X0*%
%ADD15RoundRect,0.225000X-0.225000X-0.250000X0.225000X-0.250000X0.225000X0.250000X-0.225000X0.250000X0*%
%ADD16RoundRect,0.200000X0.275000X-0.200000X0.275000X0.200000X-0.275000X0.200000X-0.275000X-0.200000X0*%
%ADD17R,5.000000X10.000000*%
G04 APERTURE END LIST*
G36*
X155698700Y-97684400D02*
G01*
X154148700Y-97684400D01*
X154148700Y-97434400D01*
X155698700Y-97434400D01*
X155698700Y-97684400D01*
G37*
D10*
X155698700Y-97684400D02*
X154148700Y-97684400D01*
X154148700Y-97434400D01*
X155698700Y-97434400D01*
X155698700Y-97684400D01*
G36*
X155673300Y-96363600D02*
G01*
X154123300Y-96363600D01*
X154123300Y-96113600D01*
X155673300Y-96113600D01*
X155673300Y-96363600D01*
G37*
X155673300Y-96363600D02*
X154123300Y-96363600D01*
X154123300Y-96113600D01*
X155673300Y-96113600D01*
X155673300Y-96363600D01*
G36*
X161286700Y-97684400D02*
G01*
X159736700Y-97684400D01*
X159736700Y-97434400D01*
X161286700Y-97434400D01*
X161286700Y-97684400D01*
G37*
X161286700Y-97684400D02*
X159736700Y-97684400D01*
X159736700Y-97434400D01*
X161286700Y-97434400D01*
X161286700Y-97684400D01*
G36*
X161286700Y-93131200D02*
G01*
X159736700Y-93131200D01*
X159736700Y-92881200D01*
X161286700Y-92881200D01*
X161286700Y-93131200D01*
G37*
X161286700Y-93131200D02*
X159736700Y-93131200D01*
X159736700Y-92881200D01*
X161286700Y-92881200D01*
X161286700Y-93131200D01*
G36*
X155686700Y-93131200D02*
G01*
X154136700Y-93131200D01*
X154136700Y-92881200D01*
X155686700Y-92881200D01*
X155686700Y-93131200D01*
G37*
X155686700Y-93131200D02*
X154136700Y-93131200D01*
X154136700Y-92881200D01*
X155686700Y-92881200D01*
X155686700Y-93131200D01*
G36*
X161286700Y-93781200D02*
G01*
X159736700Y-93781200D01*
X159736700Y-93531200D01*
X161286700Y-93531200D01*
X161286700Y-93781200D01*
G37*
X161286700Y-93781200D02*
X159736700Y-93781200D01*
X159736700Y-93531200D01*
X161286700Y-93531200D01*
X161286700Y-93781200D01*
G36*
X155698700Y-101574600D02*
G01*
X154148700Y-101574600D01*
X154148700Y-101324600D01*
X155698700Y-101324600D01*
X155698700Y-101574600D01*
G37*
X155698700Y-101574600D02*
X154148700Y-101574600D01*
X154148700Y-101324600D01*
X155698700Y-101324600D01*
X155698700Y-101574600D01*
G36*
X155673300Y-100939600D02*
G01*
X154123300Y-100939600D01*
X154123300Y-100689600D01*
X155673300Y-100689600D01*
X155673300Y-100939600D01*
G37*
X155673300Y-100939600D02*
X154123300Y-100939600D01*
X154123300Y-100689600D01*
X155673300Y-100689600D01*
X155673300Y-100939600D01*
G36*
X161312100Y-98983800D02*
G01*
X159762100Y-98983800D01*
X159762100Y-98733800D01*
X161312100Y-98733800D01*
X161312100Y-98983800D01*
G37*
X161312100Y-98983800D02*
X159762100Y-98983800D01*
X159762100Y-98733800D01*
X161312100Y-98733800D01*
X161312100Y-98983800D01*
G36*
X161286700Y-98319400D02*
G01*
X159736700Y-98319400D01*
X159736700Y-98069400D01*
X161286700Y-98069400D01*
X161286700Y-98319400D01*
G37*
X161286700Y-98319400D02*
X159736700Y-98319400D01*
X159736700Y-98069400D01*
X161286700Y-98069400D01*
X161286700Y-98319400D01*
G36*
X158911700Y-100461200D02*
G01*
X156511700Y-100461200D01*
X156511700Y-94001200D01*
X158911700Y-94001200D01*
X158911700Y-100461200D01*
G37*
X158911700Y-100461200D02*
X156511700Y-100461200D01*
X156511700Y-94001200D01*
X158911700Y-94001200D01*
X158911700Y-100461200D01*
G36*
X155698700Y-97028000D02*
G01*
X154148700Y-97028000D01*
X154148700Y-96778000D01*
X155698700Y-96778000D01*
X155698700Y-97028000D01*
G37*
X155698700Y-97028000D02*
X154148700Y-97028000D01*
X154148700Y-96778000D01*
X155698700Y-96778000D01*
X155698700Y-97028000D01*
G36*
X155686700Y-93781200D02*
G01*
X154136700Y-93781200D01*
X154136700Y-93531200D01*
X155686700Y-93531200D01*
X155686700Y-93781200D01*
G37*
X155686700Y-93781200D02*
X154136700Y-93781200D01*
X154136700Y-93531200D01*
X155686700Y-93531200D01*
X155686700Y-93781200D01*
G36*
X155686700Y-95731200D02*
G01*
X154136700Y-95731200D01*
X154136700Y-95481200D01*
X155686700Y-95481200D01*
X155686700Y-95731200D01*
G37*
X155686700Y-95731200D02*
X154136700Y-95731200D01*
X154136700Y-95481200D01*
X155686700Y-95481200D01*
X155686700Y-95731200D01*
G36*
X155698700Y-99640200D02*
G01*
X154148700Y-99640200D01*
X154148700Y-99390200D01*
X155698700Y-99390200D01*
X155698700Y-99640200D01*
G37*
X155698700Y-99640200D02*
X154148700Y-99640200D01*
X154148700Y-99390200D01*
X155698700Y-99390200D01*
X155698700Y-99640200D01*
G36*
X161286700Y-94431200D02*
G01*
X159736700Y-94431200D01*
X159736700Y-94181200D01*
X161286700Y-94181200D01*
X161286700Y-94431200D01*
G37*
X161286700Y-94431200D02*
X159736700Y-94431200D01*
X159736700Y-94181200D01*
X161286700Y-94181200D01*
X161286700Y-94431200D01*
G36*
X155686700Y-95081200D02*
G01*
X154136700Y-95081200D01*
X154136700Y-94831200D01*
X155686700Y-94831200D01*
X155686700Y-95081200D01*
G37*
X155686700Y-95081200D02*
X154136700Y-95081200D01*
X154136700Y-94831200D01*
X155686700Y-94831200D01*
X155686700Y-95081200D01*
G36*
X161286700Y-97024000D02*
G01*
X159736700Y-97024000D01*
X159736700Y-96774000D01*
X161286700Y-96774000D01*
X161286700Y-97024000D01*
G37*
X161286700Y-97024000D02*
X159736700Y-97024000D01*
X159736700Y-96774000D01*
X161286700Y-96774000D01*
X161286700Y-97024000D01*
G36*
X155698700Y-98983800D02*
G01*
X154148700Y-98983800D01*
X154148700Y-98733800D01*
X155698700Y-98733800D01*
X155698700Y-98983800D01*
G37*
X155698700Y-98983800D02*
X154148700Y-98983800D01*
X154148700Y-98733800D01*
X155698700Y-98733800D01*
X155698700Y-98983800D01*
G36*
X155686700Y-94431200D02*
G01*
X154136700Y-94431200D01*
X154136700Y-94181200D01*
X155686700Y-94181200D01*
X155686700Y-94431200D01*
G37*
X155686700Y-94431200D02*
X154136700Y-94431200D01*
X154136700Y-94181200D01*
X155686700Y-94181200D01*
X155686700Y-94431200D01*
G36*
X161286700Y-99640200D02*
G01*
X159736700Y-99640200D01*
X159736700Y-99390200D01*
X161286700Y-99390200D01*
X161286700Y-99640200D01*
G37*
X161286700Y-99640200D02*
X159736700Y-99640200D01*
X159736700Y-99390200D01*
X161286700Y-99390200D01*
X161286700Y-99640200D01*
G36*
X161286700Y-100275200D02*
G01*
X159736700Y-100275200D01*
X159736700Y-100025200D01*
X161286700Y-100025200D01*
X161286700Y-100275200D01*
G37*
X161286700Y-100275200D02*
X159736700Y-100275200D01*
X159736700Y-100025200D01*
X161286700Y-100025200D01*
X161286700Y-100275200D01*
G36*
X155673300Y-98319400D02*
G01*
X154123300Y-98319400D01*
X154123300Y-98069400D01*
X155673300Y-98069400D01*
X155673300Y-98319400D01*
G37*
X155673300Y-98319400D02*
X154123300Y-98319400D01*
X154123300Y-98069400D01*
X155673300Y-98069400D01*
X155673300Y-98319400D01*
G36*
X161286700Y-95731200D02*
G01*
X159736700Y-95731200D01*
X159736700Y-95481200D01*
X161286700Y-95481200D01*
X161286700Y-95731200D01*
G37*
X161286700Y-95731200D02*
X159736700Y-95731200D01*
X159736700Y-95481200D01*
X161286700Y-95481200D01*
X161286700Y-95731200D01*
G36*
X161312100Y-100939600D02*
G01*
X159762100Y-100939600D01*
X159762100Y-100689600D01*
X161312100Y-100689600D01*
X161312100Y-100939600D01*
G37*
X161312100Y-100939600D02*
X159762100Y-100939600D01*
X159762100Y-100689600D01*
X161312100Y-100689600D01*
X161312100Y-100939600D01*
G36*
X161286700Y-95081200D02*
G01*
X159736700Y-95081200D01*
X159736700Y-94831200D01*
X161286700Y-94831200D01*
X161286700Y-95081200D01*
G37*
X161286700Y-95081200D02*
X159736700Y-95081200D01*
X159736700Y-94831200D01*
X161286700Y-94831200D01*
X161286700Y-95081200D01*
G36*
X161286700Y-96363600D02*
G01*
X159736700Y-96363600D01*
X159736700Y-96113600D01*
X161286700Y-96113600D01*
X161286700Y-96363600D01*
G37*
X161286700Y-96363600D02*
X159736700Y-96363600D01*
X159736700Y-96113600D01*
X161286700Y-96113600D01*
X161286700Y-96363600D01*
G36*
X161312100Y-101574600D02*
G01*
X159762100Y-101574600D01*
X159762100Y-101324600D01*
X161312100Y-101324600D01*
X161312100Y-101574600D01*
G37*
X161312100Y-101574600D02*
X159762100Y-101574600D01*
X159762100Y-101324600D01*
X161312100Y-101324600D01*
X161312100Y-101574600D01*
G36*
X155673300Y-100300600D02*
G01*
X154123300Y-100300600D01*
X154123300Y-100050600D01*
X155673300Y-100050600D01*
X155673300Y-100300600D01*
G37*
X155673300Y-100300600D02*
X154123300Y-100300600D01*
X154123300Y-100050600D01*
X155673300Y-100050600D01*
X155673300Y-100300600D01*
G36*
X161591500Y-113661000D02*
G01*
X160041500Y-113661000D01*
X160041500Y-113411000D01*
X161591500Y-113411000D01*
X161591500Y-113661000D01*
G37*
X161591500Y-113661000D02*
X160041500Y-113661000D01*
X160041500Y-113411000D01*
X161591500Y-113411000D01*
X161591500Y-113661000D01*
G36*
X155991500Y-109772800D02*
G01*
X154441500Y-109772800D01*
X154441500Y-109522800D01*
X155991500Y-109522800D01*
X155991500Y-109772800D01*
G37*
X155991500Y-109772800D02*
X154441500Y-109772800D01*
X154441500Y-109522800D01*
X155991500Y-109522800D01*
X155991500Y-109772800D01*
G36*
X161591500Y-108472800D02*
G01*
X160041500Y-108472800D01*
X160041500Y-108222800D01*
X161591500Y-108222800D01*
X161591500Y-108472800D01*
G37*
X161591500Y-108472800D02*
X160041500Y-108472800D01*
X160041500Y-108222800D01*
X161591500Y-108222800D01*
X161591500Y-108472800D01*
G36*
X156003500Y-113026000D02*
G01*
X154453500Y-113026000D01*
X154453500Y-112776000D01*
X156003500Y-112776000D01*
X156003500Y-113026000D01*
G37*
X156003500Y-113026000D02*
X154453500Y-113026000D01*
X154453500Y-112776000D01*
X156003500Y-112776000D01*
X156003500Y-113026000D01*
G36*
X155978100Y-115642200D02*
G01*
X154428100Y-115642200D01*
X154428100Y-115392200D01*
X155978100Y-115392200D01*
X155978100Y-115642200D01*
G37*
X155978100Y-115642200D02*
X154428100Y-115642200D01*
X154428100Y-115392200D01*
X155978100Y-115392200D01*
X155978100Y-115642200D01*
G36*
X159216500Y-115802800D02*
G01*
X156816500Y-115802800D01*
X156816500Y-109342800D01*
X159216500Y-109342800D01*
X159216500Y-115802800D01*
G37*
X159216500Y-115802800D02*
X156816500Y-115802800D01*
X156816500Y-109342800D01*
X159216500Y-109342800D01*
X159216500Y-115802800D01*
G36*
X156003500Y-114325400D02*
G01*
X154453500Y-114325400D01*
X154453500Y-114075400D01*
X156003500Y-114075400D01*
X156003500Y-114325400D01*
G37*
X156003500Y-114325400D02*
X154453500Y-114325400D01*
X154453500Y-114075400D01*
X156003500Y-114075400D01*
X156003500Y-114325400D01*
G36*
X161591500Y-113026000D02*
G01*
X160041500Y-113026000D01*
X160041500Y-112776000D01*
X161591500Y-112776000D01*
X161591500Y-113026000D01*
G37*
X161591500Y-113026000D02*
X160041500Y-113026000D01*
X160041500Y-112776000D01*
X161591500Y-112776000D01*
X161591500Y-113026000D01*
G36*
X156003500Y-114981800D02*
G01*
X154453500Y-114981800D01*
X154453500Y-114731800D01*
X156003500Y-114731800D01*
X156003500Y-114981800D01*
G37*
X156003500Y-114981800D02*
X154453500Y-114981800D01*
X154453500Y-114731800D01*
X156003500Y-114731800D01*
X156003500Y-114981800D01*
G36*
X161616900Y-116916200D02*
G01*
X160066900Y-116916200D01*
X160066900Y-116666200D01*
X161616900Y-116666200D01*
X161616900Y-116916200D01*
G37*
X161616900Y-116916200D02*
X160066900Y-116916200D01*
X160066900Y-116666200D01*
X161616900Y-116666200D01*
X161616900Y-116916200D01*
G36*
X155978100Y-116281200D02*
G01*
X154428100Y-116281200D01*
X154428100Y-116031200D01*
X155978100Y-116031200D01*
X155978100Y-116281200D01*
G37*
X155978100Y-116281200D02*
X154428100Y-116281200D01*
X154428100Y-116031200D01*
X155978100Y-116031200D01*
X155978100Y-116281200D01*
G36*
X161591500Y-109122800D02*
G01*
X160041500Y-109122800D01*
X160041500Y-108872800D01*
X161591500Y-108872800D01*
X161591500Y-109122800D01*
G37*
X161591500Y-109122800D02*
X160041500Y-109122800D01*
X160041500Y-108872800D01*
X161591500Y-108872800D01*
X161591500Y-109122800D01*
G36*
X161591500Y-110422800D02*
G01*
X160041500Y-110422800D01*
X160041500Y-110172800D01*
X161591500Y-110172800D01*
X161591500Y-110422800D01*
G37*
X161591500Y-110422800D02*
X160041500Y-110422800D01*
X160041500Y-110172800D01*
X161591500Y-110172800D01*
X161591500Y-110422800D01*
G36*
X155991500Y-109122800D02*
G01*
X154441500Y-109122800D01*
X154441500Y-108872800D01*
X155991500Y-108872800D01*
X155991500Y-109122800D01*
G37*
X155991500Y-109122800D02*
X154441500Y-109122800D01*
X154441500Y-108872800D01*
X155991500Y-108872800D01*
X155991500Y-109122800D01*
G36*
X161616900Y-114325400D02*
G01*
X160066900Y-114325400D01*
X160066900Y-114075400D01*
X161616900Y-114075400D01*
X161616900Y-114325400D01*
G37*
X161616900Y-114325400D02*
X160066900Y-114325400D01*
X160066900Y-114075400D01*
X161616900Y-114075400D01*
X161616900Y-114325400D01*
G36*
X156003500Y-116916200D02*
G01*
X154453500Y-116916200D01*
X154453500Y-116666200D01*
X156003500Y-116666200D01*
X156003500Y-116916200D01*
G37*
X156003500Y-116916200D02*
X154453500Y-116916200D01*
X154453500Y-116666200D01*
X156003500Y-116666200D01*
X156003500Y-116916200D01*
G36*
X161616900Y-116281200D02*
G01*
X160066900Y-116281200D01*
X160066900Y-116031200D01*
X161616900Y-116031200D01*
X161616900Y-116281200D01*
G37*
X161616900Y-116281200D02*
X160066900Y-116281200D01*
X160066900Y-116031200D01*
X161616900Y-116031200D01*
X161616900Y-116281200D01*
G36*
X161591500Y-109772800D02*
G01*
X160041500Y-109772800D01*
X160041500Y-109522800D01*
X161591500Y-109522800D01*
X161591500Y-109772800D01*
G37*
X161591500Y-109772800D02*
X160041500Y-109772800D01*
X160041500Y-109522800D01*
X161591500Y-109522800D01*
X161591500Y-109772800D01*
G36*
X155978100Y-113661000D02*
G01*
X154428100Y-113661000D01*
X154428100Y-113411000D01*
X155978100Y-113411000D01*
X155978100Y-113661000D01*
G37*
X155978100Y-113661000D02*
X154428100Y-113661000D01*
X154428100Y-113411000D01*
X155978100Y-113411000D01*
X155978100Y-113661000D01*
G36*
X155991500Y-108472800D02*
G01*
X154441500Y-108472800D01*
X154441500Y-108222800D01*
X155991500Y-108222800D01*
X155991500Y-108472800D01*
G37*
X155991500Y-108472800D02*
X154441500Y-108472800D01*
X154441500Y-108222800D01*
X155991500Y-108222800D01*
X155991500Y-108472800D01*
G36*
X155991500Y-111072800D02*
G01*
X154441500Y-111072800D01*
X154441500Y-110822800D01*
X155991500Y-110822800D01*
X155991500Y-111072800D01*
G37*
X155991500Y-111072800D02*
X154441500Y-111072800D01*
X154441500Y-110822800D01*
X155991500Y-110822800D01*
X155991500Y-111072800D01*
G36*
X161591500Y-114981800D02*
G01*
X160041500Y-114981800D01*
X160041500Y-114731800D01*
X161591500Y-114731800D01*
X161591500Y-114981800D01*
G37*
X161591500Y-114981800D02*
X160041500Y-114981800D01*
X160041500Y-114731800D01*
X161591500Y-114731800D01*
X161591500Y-114981800D01*
G36*
X155978100Y-111705200D02*
G01*
X154428100Y-111705200D01*
X154428100Y-111455200D01*
X155978100Y-111455200D01*
X155978100Y-111705200D01*
G37*
X155978100Y-111705200D02*
X154428100Y-111705200D01*
X154428100Y-111455200D01*
X155978100Y-111455200D01*
X155978100Y-111705200D01*
G36*
X161591500Y-112365600D02*
G01*
X160041500Y-112365600D01*
X160041500Y-112115600D01*
X161591500Y-112115600D01*
X161591500Y-112365600D01*
G37*
X161591500Y-112365600D02*
X160041500Y-112365600D01*
X160041500Y-112115600D01*
X161591500Y-112115600D01*
X161591500Y-112365600D01*
G36*
X156003500Y-112369600D02*
G01*
X154453500Y-112369600D01*
X154453500Y-112119600D01*
X156003500Y-112119600D01*
X156003500Y-112369600D01*
G37*
X156003500Y-112369600D02*
X154453500Y-112369600D01*
X154453500Y-112119600D01*
X156003500Y-112119600D01*
X156003500Y-112369600D01*
G36*
X161591500Y-111072800D02*
G01*
X160041500Y-111072800D01*
X160041500Y-110822800D01*
X161591500Y-110822800D01*
X161591500Y-111072800D01*
G37*
X161591500Y-111072800D02*
X160041500Y-111072800D01*
X160041500Y-110822800D01*
X161591500Y-110822800D01*
X161591500Y-111072800D01*
G36*
X155991500Y-110422800D02*
G01*
X154441500Y-110422800D01*
X154441500Y-110172800D01*
X155991500Y-110172800D01*
X155991500Y-110422800D01*
G37*
X155991500Y-110422800D02*
X154441500Y-110422800D01*
X154441500Y-110172800D01*
X155991500Y-110172800D01*
X155991500Y-110422800D01*
G36*
X161591500Y-115616800D02*
G01*
X160041500Y-115616800D01*
X160041500Y-115366800D01*
X161591500Y-115366800D01*
X161591500Y-115616800D01*
G37*
X161591500Y-115616800D02*
X160041500Y-115616800D01*
X160041500Y-115366800D01*
X161591500Y-115366800D01*
X161591500Y-115616800D01*
G36*
X161591500Y-111705200D02*
G01*
X160041500Y-111705200D01*
X160041500Y-111455200D01*
X161591500Y-111455200D01*
X161591500Y-111705200D01*
G37*
X161591500Y-111705200D02*
X160041500Y-111705200D01*
X160041500Y-111455200D01*
X161591500Y-111455200D01*
X161591500Y-111705200D01*
D11*
X152342700Y-108928200D03*
X152342700Y-107378200D03*
D12*
X153162000Y-117284200D03*
X153162000Y-118834200D03*
D11*
X151892000Y-93485000D03*
X151892000Y-91935000D03*
D13*
X170027600Y-108002000D03*
X170027600Y-114502000D03*
D14*
X156206700Y-106425400D03*
X154656700Y-106425400D03*
X148730000Y-106680000D03*
X147180000Y-106680000D03*
X155969000Y-91186000D03*
X154419000Y-91186000D03*
D12*
X152908000Y-102006400D03*
X152908000Y-103556400D03*
D15*
X161026100Y-103225600D03*
X162576100Y-103225600D03*
D16*
X163931600Y-116699800D03*
X163931600Y-115049800D03*
D17*
X185699400Y-111734600D03*
D13*
X170027600Y-94225300D03*
X170027600Y-100725300D03*
D17*
X185674000Y-99187000D03*
D14*
X147891800Y-90373200D03*
X146341800Y-90373200D03*
D16*
X163728400Y-101459800D03*
X163728400Y-99809800D03*
D15*
X161229300Y-118770400D03*
X162779300Y-118770400D03*
M02*
