G04 #@! TF.GenerationSoftware,KiCad,Pcbnew,6.0.4-6f826c9f35~116~ubuntu20.04.1*
G04 #@! TF.CreationDate,2022-04-25T13:09:09+02:00*
G04 #@! TF.ProjectId,foc,666f632e-6b69-4636-9164-5f7063625858,rev?*
G04 #@! TF.SameCoordinates,Original*
G04 #@! TF.FileFunction,Soldermask,Bot*
G04 #@! TF.FilePolarity,Negative*
%FSLAX46Y46*%
G04 Gerber Fmt 4.6, Leading zero omitted, Abs format (unit mm)*
G04 Created by KiCad (PCBNEW 6.0.4-6f826c9f35~116~ubuntu20.04.1) date 2022-04-25 13:09:09*
%MOMM*%
%LPD*%
G01*
G04 APERTURE LIST*
%ADD10C,0.150000*%
%ADD11R,1.700000X1.700000*%
%ADD12O,1.700000X1.700000*%
%ADD13C,0.800000*%
%ADD14C,5.000000*%
G04 APERTURE END LIST*
D10*
X159004000Y-101663500D02*
X155702000Y-101663500D01*
X155702000Y-101663500D02*
X155702000Y-92900500D01*
X155702000Y-92900500D02*
X159004000Y-92900500D01*
X159004000Y-92900500D02*
X159004000Y-101663500D01*
G36*
X159004000Y-101663500D02*
G01*
X155702000Y-101663500D01*
X155702000Y-92900500D01*
X159004000Y-92900500D01*
X159004000Y-101663500D01*
G37*
X159639000Y-117284500D02*
X156337000Y-117284500D01*
X156337000Y-117284500D02*
X156337000Y-108521500D01*
X156337000Y-108521500D02*
X159639000Y-108521500D01*
X159639000Y-108521500D02*
X159639000Y-117284500D01*
G36*
X159639000Y-117284500D02*
G01*
X156337000Y-117284500D01*
X156337000Y-108521500D01*
X159639000Y-108521500D01*
X159639000Y-117284500D01*
G37*
D11*
X140970000Y-95315800D03*
D12*
X140970000Y-97855800D03*
X140970000Y-100395800D03*
D11*
X180543200Y-121405800D03*
D12*
X178003200Y-121405800D03*
X175463200Y-121405800D03*
X172923200Y-121405800D03*
X170383200Y-121405800D03*
X167843200Y-121405800D03*
D13*
X140365000Y-121920000D03*
X140914175Y-123245825D03*
X143565825Y-120594175D03*
X142240000Y-120045000D03*
D14*
X142240000Y-121920000D03*
D13*
X142240000Y-123795000D03*
X140914175Y-120594175D03*
X144115000Y-121920000D03*
X143565825Y-123245825D03*
D14*
X142240000Y-88900000D03*
D13*
X140365000Y-88900000D03*
X140914175Y-90225825D03*
X140914175Y-87574175D03*
X142240000Y-90775000D03*
X144115000Y-88900000D03*
X143565825Y-87574175D03*
X142240000Y-87025000D03*
X143565825Y-90225825D03*
D11*
X164139800Y-121405800D03*
D12*
X161599800Y-121405800D03*
X159059800Y-121405800D03*
X156519800Y-121405800D03*
X153979800Y-121405800D03*
X151439800Y-121405800D03*
X148899800Y-121405800D03*
D11*
X140970000Y-110555800D03*
D12*
X140970000Y-113095800D03*
X140970000Y-115635800D03*
D13*
X185420000Y-123795000D03*
D14*
X185420000Y-121920000D03*
D13*
X186745825Y-123245825D03*
X187295000Y-121920000D03*
X186745825Y-120594175D03*
X184094175Y-123245825D03*
X185420000Y-120045000D03*
X183545000Y-121920000D03*
X184094175Y-120594175D03*
X184094175Y-90225825D03*
D14*
X185420000Y-88900000D03*
D13*
X187295000Y-88900000D03*
X186745825Y-87574175D03*
X183545000Y-88900000D03*
X185420000Y-87025000D03*
X186745825Y-90225825D03*
X184094175Y-87574175D03*
X185420000Y-90775000D03*
M02*
