G04 #@! TF.GenerationSoftware,KiCad,Pcbnew,6.0.4-6f826c9f35~116~ubuntu20.04.1*
G04 #@! TF.CreationDate,2022-04-25T13:09:09+02:00*
G04 #@! TF.ProjectId,foc,666f632e-6b69-4636-9164-5f7063625858,rev?*
G04 #@! TF.SameCoordinates,Original*
G04 #@! TF.FileFunction,Soldermask,Top*
G04 #@! TF.FilePolarity,Negative*
%FSLAX46Y46*%
G04 Gerber Fmt 4.6, Leading zero omitted, Abs format (unit mm)*
G04 Created by KiCad (PCBNEW 6.0.4-6f826c9f35~116~ubuntu20.04.1) date 2022-04-25 13:09:09*
%MOMM*%
%LPD*%
G01*
G04 APERTURE LIST*
G04 Aperture macros list*
%AMRoundRect*
0 Rectangle with rounded corners*
0 $1 Rounding radius*
0 $2 $3 $4 $5 $6 $7 $8 $9 X,Y pos of 4 corners*
0 Add a 4 corners polygon primitive as box body*
4,1,4,$2,$3,$4,$5,$6,$7,$8,$9,$2,$3,0*
0 Add four circle primitives for the rounded corners*
1,1,$1+$1,$2,$3*
1,1,$1+$1,$4,$5*
1,1,$1+$1,$6,$7*
1,1,$1+$1,$8,$9*
0 Add four rect primitives between the rounded corners*
20,1,$1+$1,$2,$3,$4,$5,0*
20,1,$1+$1,$4,$5,$6,$7,0*
20,1,$1+$1,$6,$7,$8,$9,0*
20,1,$1+$1,$8,$9,$2,$3,0*%
G04 Aperture macros list end*
%ADD10C,0.150000*%
%ADD11C,0.010000*%
%ADD12R,1.700000X1.700000*%
%ADD13O,1.700000X1.700000*%
%ADD14C,0.800000*%
%ADD15C,5.000000*%
%ADD16RoundRect,0.225000X0.250000X-0.225000X0.250000X0.225000X-0.250000X0.225000X-0.250000X-0.225000X0*%
%ADD17RoundRect,0.225000X-0.250000X0.225000X-0.250000X-0.225000X0.250000X-0.225000X0.250000X0.225000X0*%
%ADD18RoundRect,0.250000X-1.000000X1.500000X-1.000000X-1.500000X1.000000X-1.500000X1.000000X1.500000X0*%
%ADD19RoundRect,0.225000X0.225000X0.250000X-0.225000X0.250000X-0.225000X-0.250000X0.225000X-0.250000X0*%
%ADD20RoundRect,0.225000X-0.225000X-0.250000X0.225000X-0.250000X0.225000X0.250000X-0.225000X0.250000X0*%
%ADD21RoundRect,0.200000X0.275000X-0.200000X0.275000X0.200000X-0.275000X0.200000X-0.275000X-0.200000X0*%
%ADD22R,5.000000X10.000000*%
G04 APERTURE END LIST*
D10*
X167696476Y-88479380D02*
X168029809Y-89479380D01*
X168363142Y-88479380D01*
X168696476Y-89479380D02*
X168696476Y-88812714D01*
X168696476Y-88479380D02*
X168648857Y-88527000D01*
X168696476Y-88574619D01*
X168744095Y-88527000D01*
X168696476Y-88479380D01*
X168696476Y-88574619D01*
X169172666Y-88812714D02*
X169172666Y-89479380D01*
X169172666Y-88907952D02*
X169220285Y-88860333D01*
X169315523Y-88812714D01*
X169458380Y-88812714D01*
X169553619Y-88860333D01*
X169601238Y-88955571D01*
X169601238Y-89479380D01*
X170506000Y-89431761D02*
X170410761Y-89479380D01*
X170220285Y-89479380D01*
X170125047Y-89431761D01*
X170077428Y-89384142D01*
X170029809Y-89288904D01*
X170029809Y-89003190D01*
X170077428Y-88907952D01*
X170125047Y-88860333D01*
X170220285Y-88812714D01*
X170410761Y-88812714D01*
X170506000Y-88860333D01*
X171315523Y-89431761D02*
X171220285Y-89479380D01*
X171029809Y-89479380D01*
X170934571Y-89431761D01*
X170886952Y-89336523D01*
X170886952Y-88955571D01*
X170934571Y-88860333D01*
X171029809Y-88812714D01*
X171220285Y-88812714D01*
X171315523Y-88860333D01*
X171363142Y-88955571D01*
X171363142Y-89050809D01*
X170886952Y-89146047D01*
X171791714Y-88812714D02*
X171791714Y-89479380D01*
X171791714Y-88907952D02*
X171839333Y-88860333D01*
X171934571Y-88812714D01*
X172077428Y-88812714D01*
X172172666Y-88860333D01*
X172220285Y-88955571D01*
X172220285Y-89479380D01*
X172601238Y-88812714D02*
X173125047Y-88812714D01*
X172601238Y-89479380D01*
X173125047Y-89479380D01*
X173648857Y-89479380D02*
X173553619Y-89431761D01*
X173506000Y-89384142D01*
X173458380Y-89288904D01*
X173458380Y-89003190D01*
X173506000Y-88907952D01*
X173553619Y-88860333D01*
X173648857Y-88812714D01*
X173791714Y-88812714D01*
X173886952Y-88860333D01*
X173934571Y-88907952D01*
X173982190Y-89003190D01*
X173982190Y-89288904D01*
X173934571Y-89384142D01*
X173886952Y-89431761D01*
X173791714Y-89479380D01*
X173648857Y-89479380D01*
X175172666Y-89479380D02*
X175172666Y-88479380D01*
X175506000Y-89193666D01*
X175839333Y-88479380D01*
X175839333Y-89479380D01*
X176744095Y-89479380D02*
X176744095Y-88955571D01*
X176696476Y-88860333D01*
X176601238Y-88812714D01*
X176410761Y-88812714D01*
X176315523Y-88860333D01*
X176744095Y-89431761D02*
X176648857Y-89479380D01*
X176410761Y-89479380D01*
X176315523Y-89431761D01*
X176267904Y-89336523D01*
X176267904Y-89241285D01*
X176315523Y-89146047D01*
X176410761Y-89098428D01*
X176648857Y-89098428D01*
X176744095Y-89050809D01*
X177220285Y-89479380D02*
X177220285Y-88812714D01*
X177220285Y-89003190D02*
X177267904Y-88907952D01*
X177315523Y-88860333D01*
X177410761Y-88812714D01*
X177506000Y-88812714D01*
X177696476Y-88812714D02*
X178077428Y-88812714D01*
X177839333Y-88479380D02*
X177839333Y-89336523D01*
X177886952Y-89431761D01*
X177982190Y-89479380D01*
X178077428Y-89479380D01*
X178839333Y-88812714D02*
X178839333Y-89479380D01*
X178410761Y-88812714D02*
X178410761Y-89336523D01*
X178458380Y-89431761D01*
X178553619Y-89479380D01*
X178696476Y-89479380D01*
X178791714Y-89431761D01*
X178839333Y-89384142D01*
X179315523Y-89479380D02*
X179315523Y-88812714D01*
X179315523Y-89003190D02*
X179363142Y-88907952D01*
X179410761Y-88860333D01*
X179506000Y-88812714D01*
X179601238Y-88812714D01*
X180363142Y-89479380D02*
X180363142Y-88955571D01*
X180315523Y-88860333D01*
X180220285Y-88812714D01*
X180029809Y-88812714D01*
X179934571Y-88860333D01*
X180363142Y-89431761D02*
X180267904Y-89479380D01*
X180029809Y-89479380D01*
X179934571Y-89431761D01*
X179886952Y-89336523D01*
X179886952Y-89241285D01*
X179934571Y-89146047D01*
X180029809Y-89098428D01*
X180267904Y-89098428D01*
X180363142Y-89050809D01*
X180839333Y-88812714D02*
X180839333Y-89479380D01*
X180839333Y-88907952D02*
X180886952Y-88860333D01*
X180982190Y-88812714D01*
X181125047Y-88812714D01*
X181220285Y-88860333D01*
X181267904Y-88955571D01*
X181267904Y-89479380D01*
X181886952Y-89479380D02*
X181791714Y-89431761D01*
X181744095Y-89384142D01*
X181696476Y-89288904D01*
X181696476Y-89003190D01*
X181744095Y-88907952D01*
X181791714Y-88860333D01*
X181886952Y-88812714D01*
X182029809Y-88812714D01*
X182125047Y-88860333D01*
X182172666Y-88907952D01*
X182220285Y-89003190D01*
X182220285Y-89288904D01*
X182172666Y-89384142D01*
X182125047Y-89431761D01*
X182029809Y-89479380D01*
X181886952Y-89479380D01*
G36*
X161407500Y-101659000D02*
G01*
X159667500Y-101659000D01*
X159667500Y-101219000D01*
X161407500Y-101219000D01*
X161407500Y-101659000D01*
G37*
G36*
X155781700Y-95826200D02*
G01*
X154041700Y-95826200D01*
X154041700Y-95386200D01*
X155781700Y-95386200D01*
X155781700Y-95826200D01*
G37*
D11*
X155781700Y-95826200D02*
X154041700Y-95826200D01*
X154041700Y-95386200D01*
X155781700Y-95386200D01*
X155781700Y-95826200D01*
G36*
X159426300Y-102116200D02*
G01*
X156009900Y-102116200D01*
X156009900Y-92379800D01*
X159426300Y-92379800D01*
X159426300Y-102116200D01*
G37*
G36*
X155768700Y-97137800D02*
G01*
X154028700Y-97137800D01*
X154028700Y-96697800D01*
X155768700Y-96697800D01*
X155768700Y-97137800D01*
G37*
G36*
X155768700Y-96502800D02*
G01*
X154028700Y-96502800D01*
X154028700Y-96062800D01*
X155768700Y-96062800D01*
X155768700Y-96502800D01*
G37*
G36*
X158911700Y-100461200D02*
G01*
X156511700Y-100461200D01*
X156511700Y-94001200D01*
X158911700Y-94001200D01*
X158911700Y-100461200D01*
G37*
X158911700Y-100461200D02*
X156511700Y-100461200D01*
X156511700Y-94001200D01*
X158911700Y-94001200D01*
X158911700Y-100461200D01*
G36*
X155781700Y-95176200D02*
G01*
X154041700Y-95176200D01*
X154041700Y-94736200D01*
X155781700Y-94736200D01*
X155781700Y-95176200D01*
G37*
X155781700Y-95176200D02*
X154041700Y-95176200D01*
X154041700Y-94736200D01*
X155781700Y-94736200D01*
X155781700Y-95176200D01*
G36*
X155794100Y-97798200D02*
G01*
X154054100Y-97798200D01*
X154054100Y-97358200D01*
X155794100Y-97358200D01*
X155794100Y-97798200D01*
G37*
G36*
X155768700Y-101024000D02*
G01*
X154028700Y-101024000D01*
X154028700Y-100584000D01*
X155768700Y-100584000D01*
X155768700Y-101024000D01*
G37*
G36*
X161381700Y-93876200D02*
G01*
X159641700Y-93876200D01*
X159641700Y-93436200D01*
X161381700Y-93436200D01*
X161381700Y-93876200D01*
G37*
X161381700Y-93876200D02*
X159641700Y-93876200D01*
X159641700Y-93436200D01*
X161381700Y-93436200D01*
X161381700Y-93876200D01*
G36*
X155781700Y-93876200D02*
G01*
X154041700Y-93876200D01*
X154041700Y-93436200D01*
X155781700Y-93436200D01*
X155781700Y-93876200D01*
G37*
X155781700Y-93876200D02*
X154041700Y-93876200D01*
X154041700Y-93436200D01*
X155781700Y-93436200D01*
X155781700Y-93876200D01*
G36*
X161407500Y-97137800D02*
G01*
X159667500Y-97137800D01*
X159667500Y-96697800D01*
X161407500Y-96697800D01*
X161407500Y-97137800D01*
G37*
G36*
X161381700Y-95176200D02*
G01*
X159641700Y-95176200D01*
X159641700Y-94736200D01*
X161381700Y-94736200D01*
X161381700Y-95176200D01*
G37*
X161381700Y-95176200D02*
X159641700Y-95176200D01*
X159641700Y-94736200D01*
X161381700Y-94736200D01*
X161381700Y-95176200D01*
G36*
X161407500Y-97772800D02*
G01*
X159667500Y-97772800D01*
X159667500Y-97332800D01*
X161407500Y-97332800D01*
X161407500Y-97772800D01*
G37*
G36*
X161407500Y-100389000D02*
G01*
X159667500Y-100389000D01*
X159667500Y-99949000D01*
X161407500Y-99949000D01*
X161407500Y-100389000D01*
G37*
G36*
X155794100Y-98407800D02*
G01*
X154054100Y-98407800D01*
X154054100Y-97967800D01*
X155794100Y-97967800D01*
X155794100Y-98407800D01*
G37*
G36*
X155794100Y-101684400D02*
G01*
X154054100Y-101684400D01*
X154054100Y-101244400D01*
X155794100Y-101244400D01*
X155794100Y-101684400D01*
G37*
G36*
X155781700Y-94526200D02*
G01*
X154041700Y-94526200D01*
X154041700Y-94086200D01*
X155781700Y-94086200D01*
X155781700Y-94526200D01*
G37*
X155781700Y-94526200D02*
X154041700Y-94526200D01*
X154041700Y-94086200D01*
X155781700Y-94086200D01*
X155781700Y-94526200D01*
G36*
X161381700Y-94526200D02*
G01*
X159641700Y-94526200D01*
X159641700Y-94086200D01*
X161381700Y-94086200D01*
X161381700Y-94526200D01*
G37*
X161381700Y-94526200D02*
X159641700Y-94526200D01*
X159641700Y-94086200D01*
X161381700Y-94086200D01*
X161381700Y-94526200D01*
G36*
X155781700Y-93226200D02*
G01*
X154041700Y-93226200D01*
X154041700Y-92786200D01*
X155781700Y-92786200D01*
X155781700Y-93226200D01*
G37*
X155781700Y-93226200D02*
X154041700Y-93226200D01*
X154041700Y-92786200D01*
X155781700Y-92786200D01*
X155781700Y-93226200D01*
G36*
X161381700Y-95826200D02*
G01*
X159641700Y-95826200D01*
X159641700Y-95386200D01*
X161381700Y-95386200D01*
X161381700Y-95826200D01*
G37*
X161381700Y-95826200D02*
X159641700Y-95826200D01*
X159641700Y-95386200D01*
X161381700Y-95386200D01*
X161381700Y-95826200D01*
G36*
X161407500Y-101024000D02*
G01*
X159667500Y-101024000D01*
X159667500Y-100584000D01*
X161407500Y-100584000D01*
X161407500Y-101024000D01*
G37*
G36*
X161382100Y-99093600D02*
G01*
X159642100Y-99093600D01*
X159642100Y-98653600D01*
X161382100Y-98653600D01*
X161382100Y-99093600D01*
G37*
G36*
X161381700Y-93226200D02*
G01*
X159641700Y-93226200D01*
X159641700Y-92786200D01*
X161381700Y-92786200D01*
X161381700Y-93226200D01*
G37*
X161381700Y-93226200D02*
X159641700Y-93226200D01*
X159641700Y-92786200D01*
X161381700Y-92786200D01*
X161381700Y-93226200D01*
G36*
X155794100Y-99728600D02*
G01*
X154054100Y-99728600D01*
X154054100Y-99288600D01*
X155794100Y-99288600D01*
X155794100Y-99728600D01*
G37*
G36*
X155794100Y-99068200D02*
G01*
X154054100Y-99068200D01*
X154054100Y-98628200D01*
X155794100Y-98628200D01*
X155794100Y-99068200D01*
G37*
G36*
X155781700Y-100376200D02*
G01*
X154041700Y-100376200D01*
X154041700Y-99936200D01*
X155781700Y-99936200D01*
X155781700Y-100376200D01*
G37*
G36*
X161407500Y-99728600D02*
G01*
X159667500Y-99728600D01*
X159667500Y-99288600D01*
X161407500Y-99288600D01*
X161407500Y-99728600D01*
G37*
G36*
X161382100Y-98433200D02*
G01*
X159642100Y-98433200D01*
X159642100Y-97993200D01*
X161382100Y-97993200D01*
X161382100Y-98433200D01*
G37*
G36*
X161407500Y-96477400D02*
G01*
X159667500Y-96477400D01*
X159667500Y-96037400D01*
X161407500Y-96037400D01*
X161407500Y-96477400D01*
G37*
G36*
X161712300Y-117000600D02*
G01*
X159972300Y-117000600D01*
X159972300Y-116560600D01*
X161712300Y-116560600D01*
X161712300Y-117000600D01*
G37*
G36*
X156086500Y-109217800D02*
G01*
X154346500Y-109217800D01*
X154346500Y-108777800D01*
X156086500Y-108777800D01*
X156086500Y-109217800D01*
G37*
X156086500Y-109217800D02*
X154346500Y-109217800D01*
X154346500Y-108777800D01*
X156086500Y-108777800D01*
X156086500Y-109217800D01*
G36*
X156073500Y-111844400D02*
G01*
X154333500Y-111844400D01*
X154333500Y-111404400D01*
X156073500Y-111404400D01*
X156073500Y-111844400D01*
G37*
G36*
X156086500Y-115717800D02*
G01*
X154346500Y-115717800D01*
X154346500Y-115277800D01*
X156086500Y-115277800D01*
X156086500Y-115717800D01*
G37*
G36*
X161686500Y-109217800D02*
G01*
X159946500Y-109217800D01*
X159946500Y-108777800D01*
X161686500Y-108777800D01*
X161686500Y-109217800D01*
G37*
X161686500Y-109217800D02*
X159946500Y-109217800D01*
X159946500Y-108777800D01*
X161686500Y-108777800D01*
X161686500Y-109217800D01*
G36*
X161686900Y-113774800D02*
G01*
X159946900Y-113774800D01*
X159946900Y-113334800D01*
X161686900Y-113334800D01*
X161686900Y-113774800D01*
G37*
G36*
X156098900Y-113139800D02*
G01*
X154358900Y-113139800D01*
X154358900Y-112699800D01*
X156098900Y-112699800D01*
X156098900Y-113139800D01*
G37*
G36*
X161712300Y-112479400D02*
G01*
X159972300Y-112479400D01*
X159972300Y-112039400D01*
X161712300Y-112039400D01*
X161712300Y-112479400D01*
G37*
G36*
X156098900Y-114409800D02*
G01*
X154358900Y-114409800D01*
X154358900Y-113969800D01*
X156098900Y-113969800D01*
X156098900Y-114409800D01*
G37*
G36*
X161712300Y-115070200D02*
G01*
X159972300Y-115070200D01*
X159972300Y-114630200D01*
X161712300Y-114630200D01*
X161712300Y-115070200D01*
G37*
G36*
X159731100Y-117457800D02*
G01*
X156314700Y-117457800D01*
X156314700Y-107721400D01*
X159731100Y-107721400D01*
X159731100Y-117457800D01*
G37*
G36*
X161686500Y-111167800D02*
G01*
X159946500Y-111167800D01*
X159946500Y-110727800D01*
X161686500Y-110727800D01*
X161686500Y-111167800D01*
G37*
X161686500Y-111167800D02*
X159946500Y-111167800D01*
X159946500Y-110727800D01*
X161686500Y-110727800D01*
X161686500Y-111167800D01*
G36*
X156086500Y-111167800D02*
G01*
X154346500Y-111167800D01*
X154346500Y-110727800D01*
X156086500Y-110727800D01*
X156086500Y-111167800D01*
G37*
X156086500Y-111167800D02*
X154346500Y-111167800D01*
X154346500Y-110727800D01*
X156086500Y-110727800D01*
X156086500Y-111167800D01*
G36*
X156098900Y-113749400D02*
G01*
X154358900Y-113749400D01*
X154358900Y-113309400D01*
X156098900Y-113309400D01*
X156098900Y-113749400D01*
G37*
G36*
X161686900Y-114435200D02*
G01*
X159946900Y-114435200D01*
X159946900Y-113995200D01*
X161686900Y-113995200D01*
X161686900Y-114435200D01*
G37*
G36*
X156086500Y-109867800D02*
G01*
X154346500Y-109867800D01*
X154346500Y-109427800D01*
X156086500Y-109427800D01*
X156086500Y-109867800D01*
G37*
X156086500Y-109867800D02*
X154346500Y-109867800D01*
X154346500Y-109427800D01*
X156086500Y-109427800D01*
X156086500Y-109867800D01*
G36*
X156098900Y-117026000D02*
G01*
X154358900Y-117026000D01*
X154358900Y-116586000D01*
X156098900Y-116586000D01*
X156098900Y-117026000D01*
G37*
G36*
X161686500Y-109867800D02*
G01*
X159946500Y-109867800D01*
X159946500Y-109427800D01*
X161686500Y-109427800D01*
X161686500Y-109867800D01*
G37*
X161686500Y-109867800D02*
X159946500Y-109867800D01*
X159946500Y-109427800D01*
X161686500Y-109427800D01*
X161686500Y-109867800D01*
G36*
X161686500Y-110517800D02*
G01*
X159946500Y-110517800D01*
X159946500Y-110077800D01*
X161686500Y-110077800D01*
X161686500Y-110517800D01*
G37*
X161686500Y-110517800D02*
X159946500Y-110517800D01*
X159946500Y-110077800D01*
X161686500Y-110077800D01*
X161686500Y-110517800D01*
G36*
X156086500Y-110517800D02*
G01*
X154346500Y-110517800D01*
X154346500Y-110077800D01*
X156086500Y-110077800D01*
X156086500Y-110517800D01*
G37*
X156086500Y-110517800D02*
X154346500Y-110517800D01*
X154346500Y-110077800D01*
X156086500Y-110077800D01*
X156086500Y-110517800D01*
G36*
X161712300Y-113114400D02*
G01*
X159972300Y-113114400D01*
X159972300Y-112674400D01*
X161712300Y-112674400D01*
X161712300Y-113114400D01*
G37*
G36*
X156098900Y-115070200D02*
G01*
X154358900Y-115070200D01*
X154358900Y-114630200D01*
X156098900Y-114630200D01*
X156098900Y-115070200D01*
G37*
G36*
X156086500Y-108567800D02*
G01*
X154346500Y-108567800D01*
X154346500Y-108127800D01*
X156086500Y-108127800D01*
X156086500Y-108567800D01*
G37*
X156086500Y-108567800D02*
X154346500Y-108567800D01*
X154346500Y-108127800D01*
X156086500Y-108127800D01*
X156086500Y-108567800D01*
G36*
X161686500Y-108567800D02*
G01*
X159946500Y-108567800D01*
X159946500Y-108127800D01*
X161686500Y-108127800D01*
X161686500Y-108567800D01*
G37*
X161686500Y-108567800D02*
X159946500Y-108567800D01*
X159946500Y-108127800D01*
X161686500Y-108127800D01*
X161686500Y-108567800D01*
G36*
X161712300Y-116365600D02*
G01*
X159972300Y-116365600D01*
X159972300Y-115925600D01*
X161712300Y-115925600D01*
X161712300Y-116365600D01*
G37*
G36*
X159216500Y-115802800D02*
G01*
X156816500Y-115802800D01*
X156816500Y-109342800D01*
X159216500Y-109342800D01*
X159216500Y-115802800D01*
G37*
X159216500Y-115802800D02*
X156816500Y-115802800D01*
X156816500Y-109342800D01*
X159216500Y-109342800D01*
X159216500Y-115802800D01*
G36*
X156073500Y-116365600D02*
G01*
X154333500Y-116365600D01*
X154333500Y-115925600D01*
X156073500Y-115925600D01*
X156073500Y-116365600D01*
G37*
G36*
X156073500Y-112479400D02*
G01*
X154333500Y-112479400D01*
X154333500Y-112039400D01*
X156073500Y-112039400D01*
X156073500Y-112479400D01*
G37*
G36*
X161712300Y-115730600D02*
G01*
X159972300Y-115730600D01*
X159972300Y-115290600D01*
X161712300Y-115290600D01*
X161712300Y-115730600D01*
G37*
G36*
X161712300Y-111819000D02*
G01*
X159972300Y-111819000D01*
X159972300Y-111379000D01*
X161712300Y-111379000D01*
X161712300Y-111819000D01*
G37*
D12*
X140970000Y-95315800D03*
D13*
X140970000Y-97855800D03*
X140970000Y-100395800D03*
D12*
X180543200Y-121405800D03*
D13*
X178003200Y-121405800D03*
X175463200Y-121405800D03*
X172923200Y-121405800D03*
X170383200Y-121405800D03*
X167843200Y-121405800D03*
D14*
X140365000Y-121920000D03*
X140914175Y-123245825D03*
X143565825Y-120594175D03*
X142240000Y-120045000D03*
D15*
X142240000Y-121920000D03*
D14*
X142240000Y-123795000D03*
X140914175Y-120594175D03*
X144115000Y-121920000D03*
X143565825Y-123245825D03*
D16*
X152342700Y-108928200D03*
X152342700Y-107378200D03*
D17*
X153162000Y-117284200D03*
X153162000Y-118834200D03*
D15*
X142240000Y-88900000D03*
D14*
X140365000Y-88900000D03*
X140914175Y-90225825D03*
X140914175Y-87574175D03*
X142240000Y-90775000D03*
X144115000Y-88900000D03*
X143565825Y-87574175D03*
X142240000Y-87025000D03*
X143565825Y-90225825D03*
D16*
X151892000Y-93485000D03*
X151892000Y-91935000D03*
D18*
X170027600Y-108002000D03*
X170027600Y-114502000D03*
D12*
X164139800Y-121405800D03*
D13*
X161599800Y-121405800D03*
X159059800Y-121405800D03*
X156519800Y-121405800D03*
X153979800Y-121405800D03*
X151439800Y-121405800D03*
X148899800Y-121405800D03*
D19*
X156206700Y-106425400D03*
X154656700Y-106425400D03*
X148730000Y-106680000D03*
X147180000Y-106680000D03*
D12*
X140970000Y-110555800D03*
D13*
X140970000Y-113095800D03*
X140970000Y-115635800D03*
D19*
X155969000Y-91186000D03*
X154419000Y-91186000D03*
D17*
X152908000Y-102006400D03*
X152908000Y-103556400D03*
D14*
X185420000Y-123795000D03*
D15*
X185420000Y-121920000D03*
D14*
X186745825Y-123245825D03*
X187295000Y-121920000D03*
X186745825Y-120594175D03*
X184094175Y-123245825D03*
X185420000Y-120045000D03*
X183545000Y-121920000D03*
X184094175Y-120594175D03*
X184094175Y-90225825D03*
D15*
X185420000Y-88900000D03*
D14*
X187295000Y-88900000D03*
X186745825Y-87574175D03*
X183545000Y-88900000D03*
X185420000Y-87025000D03*
X186745825Y-90225825D03*
X184094175Y-87574175D03*
X185420000Y-90775000D03*
D20*
X161026100Y-103225600D03*
X162576100Y-103225600D03*
D21*
X163931600Y-116699800D03*
X163931600Y-115049800D03*
D22*
X185699400Y-111734600D03*
D18*
X170027600Y-94225300D03*
X170027600Y-100725300D03*
D22*
X185674000Y-99187000D03*
D19*
X147891800Y-90373200D03*
X146341800Y-90373200D03*
D21*
X163728400Y-101459800D03*
X163728400Y-99809800D03*
D20*
X161229300Y-118770400D03*
X162779300Y-118770400D03*
M02*
