G04 #@! TF.GenerationSoftware,KiCad,Pcbnew,6.0.4-6f826c9f35~116~ubuntu20.04.1*
G04 #@! TF.CreationDate,2022-04-25T13:09:09+02:00*
G04 #@! TF.ProjectId,foc,666f632e-6b69-4636-9164-5f7063625858,rev?*
G04 #@! TF.SameCoordinates,Original*
G04 #@! TF.FileFunction,Legend,Top*
G04 #@! TF.FilePolarity,Positive*
%FSLAX46Y46*%
G04 Gerber Fmt 4.6, Leading zero omitted, Abs format (unit mm)*
G04 Created by KiCad (PCBNEW 6.0.4-6f826c9f35~116~ubuntu20.04.1) date 2022-04-25 13:09:09*
%MOMM*%
%LPD*%
G01*
G04 APERTURE LIST*
%ADD10C,0.125000*%
%ADD11C,0.150000*%
%ADD12C,0.120000*%
%ADD13C,0.127000*%
%ADD14C,0.200000*%
G04 APERTURE END LIST*
D10*
X168251476Y-97262190D02*
X168251476Y-97619333D01*
X168227666Y-97690761D01*
X168180047Y-97738380D01*
X168108619Y-97762190D01*
X168061000Y-97762190D01*
X168727666Y-97762190D02*
X168489571Y-97762190D01*
X168489571Y-97262190D01*
X169180047Y-97714571D02*
X169156238Y-97738380D01*
X169084809Y-97762190D01*
X169037190Y-97762190D01*
X168965761Y-97738380D01*
X168918142Y-97690761D01*
X168894333Y-97643142D01*
X168870523Y-97547904D01*
X168870523Y-97476476D01*
X168894333Y-97381238D01*
X168918142Y-97333619D01*
X168965761Y-97286000D01*
X169037190Y-97262190D01*
X169084809Y-97262190D01*
X169156238Y-97286000D01*
X169180047Y-97309809D01*
X169537190Y-97262190D02*
X169537190Y-97619333D01*
X169513380Y-97690761D01*
X169465761Y-97738380D01*
X169394333Y-97762190D01*
X169346714Y-97762190D01*
X170013380Y-97762190D02*
X169775285Y-97762190D01*
X169775285Y-97262190D01*
X170465761Y-97714571D02*
X170441952Y-97738380D01*
X170370523Y-97762190D01*
X170322904Y-97762190D01*
X170251476Y-97738380D01*
X170203857Y-97690761D01*
X170180047Y-97643142D01*
X170156238Y-97547904D01*
X170156238Y-97476476D01*
X170180047Y-97381238D01*
X170203857Y-97333619D01*
X170251476Y-97286000D01*
X170322904Y-97262190D01*
X170370523Y-97262190D01*
X170441952Y-97286000D01*
X170465761Y-97309809D01*
X170822904Y-97262190D02*
X170822904Y-97619333D01*
X170799095Y-97690761D01*
X170751476Y-97738380D01*
X170680047Y-97762190D01*
X170632428Y-97762190D01*
X171299095Y-97762190D02*
X171061000Y-97762190D01*
X171061000Y-97262190D01*
X171751476Y-97714571D02*
X171727666Y-97738380D01*
X171656238Y-97762190D01*
X171608619Y-97762190D01*
X171537190Y-97738380D01*
X171489571Y-97690761D01*
X171465761Y-97643142D01*
X171441952Y-97547904D01*
X171441952Y-97476476D01*
X171465761Y-97381238D01*
X171489571Y-97333619D01*
X171537190Y-97286000D01*
X171608619Y-97262190D01*
X171656238Y-97262190D01*
X171727666Y-97286000D01*
X171751476Y-97309809D01*
X172108619Y-97262190D02*
X172108619Y-97619333D01*
X172084809Y-97690761D01*
X172037190Y-97738380D01*
X171965761Y-97762190D01*
X171918142Y-97762190D01*
X172584809Y-97762190D02*
X172346714Y-97762190D01*
X172346714Y-97262190D01*
X173037190Y-97714571D02*
X173013380Y-97738380D01*
X172941952Y-97762190D01*
X172894333Y-97762190D01*
X172822904Y-97738380D01*
X172775285Y-97690761D01*
X172751476Y-97643142D01*
X172727666Y-97547904D01*
X172727666Y-97476476D01*
X172751476Y-97381238D01*
X172775285Y-97333619D01*
X172822904Y-97286000D01*
X172894333Y-97262190D01*
X172941952Y-97262190D01*
X173013380Y-97286000D01*
X173037190Y-97309809D01*
D11*
X143200809Y-113482380D02*
X143200809Y-112482380D01*
X143581761Y-112482380D01*
X143677000Y-112530000D01*
X143724619Y-112577619D01*
X143772238Y-112672857D01*
X143772238Y-112815714D01*
X143724619Y-112910952D01*
X143677000Y-112958571D01*
X143581761Y-113006190D01*
X143200809Y-113006190D01*
X144200809Y-113482380D02*
X144200809Y-112482380D01*
X144629380Y-113482380D02*
X144629380Y-112958571D01*
X144581761Y-112863333D01*
X144486523Y-112815714D01*
X144343666Y-112815714D01*
X144248428Y-112863333D01*
X144200809Y-112910952D01*
X145534142Y-113482380D02*
X145534142Y-112958571D01*
X145486523Y-112863333D01*
X145391285Y-112815714D01*
X145200809Y-112815714D01*
X145105571Y-112863333D01*
X145534142Y-113434761D02*
X145438904Y-113482380D01*
X145200809Y-113482380D01*
X145105571Y-113434761D01*
X145057952Y-113339523D01*
X145057952Y-113244285D01*
X145105571Y-113149047D01*
X145200809Y-113101428D01*
X145438904Y-113101428D01*
X145534142Y-113053809D01*
X145962714Y-113434761D02*
X146057952Y-113482380D01*
X146248428Y-113482380D01*
X146343666Y-113434761D01*
X146391285Y-113339523D01*
X146391285Y-113291904D01*
X146343666Y-113196666D01*
X146248428Y-113149047D01*
X146105571Y-113149047D01*
X146010333Y-113101428D01*
X145962714Y-113006190D01*
X145962714Y-112958571D01*
X146010333Y-112863333D01*
X146105571Y-112815714D01*
X146248428Y-112815714D01*
X146343666Y-112863333D01*
X147200809Y-113434761D02*
X147105571Y-113482380D01*
X146915095Y-113482380D01*
X146819857Y-113434761D01*
X146772238Y-113339523D01*
X146772238Y-112958571D01*
X146819857Y-112863333D01*
X146915095Y-112815714D01*
X147105571Y-112815714D01*
X147200809Y-112863333D01*
X147248428Y-112958571D01*
X147248428Y-113053809D01*
X146772238Y-113149047D01*
X148010333Y-112958571D02*
X148153190Y-113006190D01*
X148200809Y-113053809D01*
X148248428Y-113149047D01*
X148248428Y-113291904D01*
X148200809Y-113387142D01*
X148153190Y-113434761D01*
X148057952Y-113482380D01*
X147677000Y-113482380D01*
X147677000Y-112482380D01*
X148010333Y-112482380D01*
X148105571Y-112530000D01*
X148153190Y-112577619D01*
X148200809Y-112672857D01*
X148200809Y-112768095D01*
X148153190Y-112863333D01*
X148105571Y-112910952D01*
X148010333Y-112958571D01*
X147677000Y-112958571D01*
X148629380Y-112577619D02*
X148677000Y-112530000D01*
X148772238Y-112482380D01*
X149010333Y-112482380D01*
X149105571Y-112530000D01*
X149153190Y-112577619D01*
X149200809Y-112672857D01*
X149200809Y-112768095D01*
X149153190Y-112910952D01*
X148581761Y-113482380D01*
X149200809Y-113482380D01*
D10*
X170199857Y-120114047D02*
X170533190Y-120114047D01*
X170247476Y-120114047D02*
X170223666Y-120090238D01*
X170199857Y-120042619D01*
X170199857Y-119971190D01*
X170223666Y-119923571D01*
X170271285Y-119899761D01*
X170533190Y-119899761D01*
X170509380Y-119685476D02*
X170533190Y-119614047D01*
X170533190Y-119495000D01*
X170509380Y-119447380D01*
X170485571Y-119423571D01*
X170437952Y-119399761D01*
X170390333Y-119399761D01*
X170342714Y-119423571D01*
X170318904Y-119447380D01*
X170295095Y-119495000D01*
X170271285Y-119590238D01*
X170247476Y-119637857D01*
X170223666Y-119661666D01*
X170176047Y-119685476D01*
X170128428Y-119685476D01*
X170080809Y-119661666D01*
X170057000Y-119637857D01*
X170033190Y-119590238D01*
X170033190Y-119471190D01*
X170057000Y-119399761D01*
X170533190Y-119114047D02*
X170509380Y-119161666D01*
X170461761Y-119185476D01*
X170033190Y-119185476D01*
X170509380Y-118733095D02*
X170533190Y-118780714D01*
X170533190Y-118875952D01*
X170509380Y-118923571D01*
X170461761Y-118947380D01*
X170271285Y-118947380D01*
X170223666Y-118923571D01*
X170199857Y-118875952D01*
X170199857Y-118780714D01*
X170223666Y-118733095D01*
X170271285Y-118709285D01*
X170318904Y-118709285D01*
X170366523Y-118947380D01*
X170509380Y-118304523D02*
X170533190Y-118352142D01*
X170533190Y-118447380D01*
X170509380Y-118495000D01*
X170461761Y-118518809D01*
X170271285Y-118518809D01*
X170223666Y-118495000D01*
X170199857Y-118447380D01*
X170199857Y-118352142D01*
X170223666Y-118304523D01*
X170271285Y-118280714D01*
X170318904Y-118280714D01*
X170366523Y-118518809D01*
X170199857Y-118066428D02*
X170699857Y-118066428D01*
X170223666Y-118066428D02*
X170199857Y-118018809D01*
X170199857Y-117923571D01*
X170223666Y-117875952D01*
X170247476Y-117852142D01*
X170295095Y-117828333D01*
X170437952Y-117828333D01*
X170485571Y-117852142D01*
X170509380Y-117875952D01*
X170533190Y-117923571D01*
X170533190Y-118018809D01*
X170509380Y-118066428D01*
X170080809Y-117637857D02*
X170057000Y-117614047D01*
X170033190Y-117566428D01*
X170033190Y-117447380D01*
X170057000Y-117399761D01*
X170080809Y-117375952D01*
X170128428Y-117352142D01*
X170176047Y-117352142D01*
X170247476Y-117375952D01*
X170533190Y-117661666D01*
X170533190Y-117352142D01*
X180486857Y-119860047D02*
X180820190Y-119860047D01*
X180534476Y-119860047D02*
X180510666Y-119836238D01*
X180486857Y-119788619D01*
X180486857Y-119717190D01*
X180510666Y-119669571D01*
X180558285Y-119645761D01*
X180820190Y-119645761D01*
X180820190Y-119121952D02*
X180582095Y-119288619D01*
X180820190Y-119407666D02*
X180320190Y-119407666D01*
X180320190Y-119217190D01*
X180344000Y-119169571D01*
X180367809Y-119145761D01*
X180415428Y-119121952D01*
X180486857Y-119121952D01*
X180534476Y-119145761D01*
X180558285Y-119169571D01*
X180582095Y-119217190D01*
X180582095Y-119407666D01*
X180796380Y-118717190D02*
X180820190Y-118764809D01*
X180820190Y-118860047D01*
X180796380Y-118907666D01*
X180748761Y-118931476D01*
X180558285Y-118931476D01*
X180510666Y-118907666D01*
X180486857Y-118860047D01*
X180486857Y-118764809D01*
X180510666Y-118717190D01*
X180558285Y-118693380D01*
X180605904Y-118693380D01*
X180653523Y-118931476D01*
X180796380Y-118502904D02*
X180820190Y-118455285D01*
X180820190Y-118360047D01*
X180796380Y-118312428D01*
X180748761Y-118288619D01*
X180724952Y-118288619D01*
X180677333Y-118312428D01*
X180653523Y-118360047D01*
X180653523Y-118431476D01*
X180629714Y-118479095D01*
X180582095Y-118502904D01*
X180558285Y-118502904D01*
X180510666Y-118479095D01*
X180486857Y-118431476D01*
X180486857Y-118360047D01*
X180510666Y-118312428D01*
X180796380Y-117883857D02*
X180820190Y-117931476D01*
X180820190Y-118026714D01*
X180796380Y-118074333D01*
X180748761Y-118098142D01*
X180558285Y-118098142D01*
X180510666Y-118074333D01*
X180486857Y-118026714D01*
X180486857Y-117931476D01*
X180510666Y-117883857D01*
X180558285Y-117860047D01*
X180605904Y-117860047D01*
X180653523Y-118098142D01*
X180486857Y-117717190D02*
X180486857Y-117526714D01*
X180320190Y-117645761D02*
X180748761Y-117645761D01*
X180796380Y-117621952D01*
X180820190Y-117574333D01*
X180820190Y-117526714D01*
X180820190Y-117098142D02*
X180820190Y-117383857D01*
X180820190Y-117241000D02*
X180320190Y-117241000D01*
X180391619Y-117288619D01*
X180439238Y-117336238D01*
X180463047Y-117383857D01*
X150772904Y-120114190D02*
X150772904Y-119614190D01*
X151011000Y-120114190D02*
X151011000Y-119614190D01*
X151296714Y-120114190D01*
X151296714Y-119614190D01*
X151511000Y-119661809D02*
X151534809Y-119638000D01*
X151582428Y-119614190D01*
X151701476Y-119614190D01*
X151749095Y-119638000D01*
X151772904Y-119661809D01*
X151796714Y-119709428D01*
X151796714Y-119757047D01*
X151772904Y-119828476D01*
X151487190Y-120114190D01*
X151796714Y-120114190D01*
X152272904Y-120114190D02*
X151987190Y-120114190D01*
X152130047Y-120114190D02*
X152130047Y-119614190D01*
X152082428Y-119685619D01*
X152034809Y-119733238D01*
X151987190Y-119757047D01*
D11*
X174270851Y-90733571D02*
X174407755Y-90781190D01*
X174449422Y-90828809D01*
X174485136Y-90924047D01*
X174467279Y-91066904D01*
X174407755Y-91162142D01*
X174354184Y-91209761D01*
X174252994Y-91257380D01*
X173872041Y-91257380D01*
X173997041Y-90257380D01*
X174330375Y-90257380D01*
X174419660Y-90305000D01*
X174461327Y-90352619D01*
X174497041Y-90447857D01*
X174485136Y-90543095D01*
X174425613Y-90638333D01*
X174372041Y-90685952D01*
X174270851Y-90733571D01*
X173937517Y-90733571D01*
X175348232Y-91257380D02*
X174872041Y-91257380D01*
X174997041Y-90257380D01*
X175681565Y-91257380D02*
X175806565Y-90257380D01*
X176044660Y-90257380D01*
X176181565Y-90305000D01*
X176264898Y-90400238D01*
X176300613Y-90495476D01*
X176324422Y-90685952D01*
X176306565Y-90828809D01*
X176235136Y-91019285D01*
X176175613Y-91114523D01*
X176068470Y-91209761D01*
X175919660Y-91257380D01*
X175681565Y-91257380D01*
X177264898Y-91162142D02*
X177211327Y-91209761D01*
X177062517Y-91257380D01*
X176967279Y-91257380D01*
X176830375Y-91209761D01*
X176747041Y-91114523D01*
X176711327Y-91019285D01*
X176687517Y-90828809D01*
X176705375Y-90685952D01*
X176776803Y-90495476D01*
X176836327Y-90400238D01*
X176943470Y-90305000D01*
X177092279Y-90257380D01*
X177187517Y-90257380D01*
X177324422Y-90305000D01*
X177366089Y-90352619D01*
X178443470Y-91257380D02*
X178568470Y-90257380D01*
X178806565Y-90257380D01*
X178943470Y-90305000D01*
X179026803Y-90400238D01*
X179062517Y-90495476D01*
X179086327Y-90685952D01*
X179068470Y-90828809D01*
X178997041Y-91019285D01*
X178937517Y-91114523D01*
X178830375Y-91209761D01*
X178681565Y-91257380D01*
X178443470Y-91257380D01*
X179443470Y-91257380D02*
X179526803Y-90590714D01*
X179502994Y-90781190D02*
X179562517Y-90685952D01*
X179616089Y-90638333D01*
X179717279Y-90590714D01*
X179812517Y-90590714D01*
X180062517Y-91257380D02*
X180145851Y-90590714D01*
X180187517Y-90257380D02*
X180133946Y-90305000D01*
X180175613Y-90352619D01*
X180229184Y-90305000D01*
X180187517Y-90257380D01*
X180175613Y-90352619D01*
X180526803Y-90590714D02*
X180681565Y-91257380D01*
X181002994Y-90590714D01*
X181687517Y-91209761D02*
X181586327Y-91257380D01*
X181395851Y-91257380D01*
X181306565Y-91209761D01*
X181270851Y-91114523D01*
X181318470Y-90733571D01*
X181377994Y-90638333D01*
X181479184Y-90590714D01*
X181669660Y-90590714D01*
X181758946Y-90638333D01*
X181794660Y-90733571D01*
X181782755Y-90828809D01*
X181294660Y-90924047D01*
X182157755Y-91257380D02*
X182241089Y-90590714D01*
X182217279Y-90781190D02*
X182276803Y-90685952D01*
X182330375Y-90638333D01*
X182431565Y-90590714D01*
X182526803Y-90590714D01*
D10*
X148232904Y-120114190D02*
X148232904Y-119614190D01*
X148471000Y-120114190D02*
X148471000Y-119614190D01*
X148756714Y-120114190D01*
X148756714Y-119614190D01*
X149256714Y-120114190D02*
X148971000Y-120114190D01*
X149113857Y-120114190D02*
X149113857Y-119614190D01*
X149066238Y-119685619D01*
X149018619Y-119733238D01*
X148971000Y-119757047D01*
X149732904Y-120114190D02*
X149447190Y-120114190D01*
X149590047Y-120114190D02*
X149590047Y-119614190D01*
X149542428Y-119685619D01*
X149494809Y-119733238D01*
X149447190Y-119757047D01*
D11*
X143200809Y-98496380D02*
X143200809Y-97496380D01*
X143581761Y-97496380D01*
X143677000Y-97544000D01*
X143724619Y-97591619D01*
X143772238Y-97686857D01*
X143772238Y-97829714D01*
X143724619Y-97924952D01*
X143677000Y-97972571D01*
X143581761Y-98020190D01*
X143200809Y-98020190D01*
X144200809Y-98496380D02*
X144200809Y-97496380D01*
X144629380Y-98496380D02*
X144629380Y-97972571D01*
X144581761Y-97877333D01*
X144486523Y-97829714D01*
X144343666Y-97829714D01*
X144248428Y-97877333D01*
X144200809Y-97924952D01*
X145534142Y-98496380D02*
X145534142Y-97972571D01*
X145486523Y-97877333D01*
X145391285Y-97829714D01*
X145200809Y-97829714D01*
X145105571Y-97877333D01*
X145534142Y-98448761D02*
X145438904Y-98496380D01*
X145200809Y-98496380D01*
X145105571Y-98448761D01*
X145057952Y-98353523D01*
X145057952Y-98258285D01*
X145105571Y-98163047D01*
X145200809Y-98115428D01*
X145438904Y-98115428D01*
X145534142Y-98067809D01*
X145962714Y-98448761D02*
X146057952Y-98496380D01*
X146248428Y-98496380D01*
X146343666Y-98448761D01*
X146391285Y-98353523D01*
X146391285Y-98305904D01*
X146343666Y-98210666D01*
X146248428Y-98163047D01*
X146105571Y-98163047D01*
X146010333Y-98115428D01*
X145962714Y-98020190D01*
X145962714Y-97972571D01*
X146010333Y-97877333D01*
X146105571Y-97829714D01*
X146248428Y-97829714D01*
X146343666Y-97877333D01*
X147200809Y-98448761D02*
X147105571Y-98496380D01*
X146915095Y-98496380D01*
X146819857Y-98448761D01*
X146772238Y-98353523D01*
X146772238Y-97972571D01*
X146819857Y-97877333D01*
X146915095Y-97829714D01*
X147105571Y-97829714D01*
X147200809Y-97877333D01*
X147248428Y-97972571D01*
X147248428Y-98067809D01*
X146772238Y-98163047D01*
X148010333Y-97972571D02*
X148153190Y-98020190D01*
X148200809Y-98067809D01*
X148248428Y-98163047D01*
X148248428Y-98305904D01*
X148200809Y-98401142D01*
X148153190Y-98448761D01*
X148057952Y-98496380D01*
X147677000Y-98496380D01*
X147677000Y-97496380D01*
X148010333Y-97496380D01*
X148105571Y-97544000D01*
X148153190Y-97591619D01*
X148200809Y-97686857D01*
X148200809Y-97782095D01*
X148153190Y-97877333D01*
X148105571Y-97924952D01*
X148010333Y-97972571D01*
X147677000Y-97972571D01*
X149200809Y-98496380D02*
X148629380Y-98496380D01*
X148915095Y-98496380D02*
X148915095Y-97496380D01*
X148819857Y-97639238D01*
X148724619Y-97734476D01*
X148629380Y-97782095D01*
X184102619Y-93543380D02*
X184102619Y-92543380D01*
X184483571Y-92543380D01*
X184578809Y-92591000D01*
X184626428Y-92638619D01*
X184674047Y-92733857D01*
X184674047Y-92876714D01*
X184626428Y-92971952D01*
X184578809Y-93019571D01*
X184483571Y-93067190D01*
X184102619Y-93067190D01*
X185007380Y-92543380D02*
X185245476Y-93543380D01*
X185435952Y-92829095D01*
X185626428Y-93543380D01*
X185864523Y-92543380D01*
X186816904Y-93543380D02*
X186483571Y-93067190D01*
X186245476Y-93543380D02*
X186245476Y-92543380D01*
X186626428Y-92543380D01*
X186721666Y-92591000D01*
X186769285Y-92638619D01*
X186816904Y-92733857D01*
X186816904Y-92876714D01*
X186769285Y-92971952D01*
X186721666Y-93019571D01*
X186626428Y-93067190D01*
X186245476Y-93067190D01*
X187245476Y-93162428D02*
X188007380Y-93162428D01*
X187626428Y-93543380D02*
X187626428Y-92781476D01*
D10*
X153185904Y-120114190D02*
X153185904Y-119614190D01*
X153424000Y-120114190D02*
X153424000Y-119614190D01*
X153709714Y-120114190D01*
X153709714Y-119614190D01*
X153900190Y-119614190D02*
X154209714Y-119614190D01*
X154043047Y-119804666D01*
X154114476Y-119804666D01*
X154162095Y-119828476D01*
X154185904Y-119852285D01*
X154209714Y-119899904D01*
X154209714Y-120018952D01*
X154185904Y-120066571D01*
X154162095Y-120090380D01*
X154114476Y-120114190D01*
X153971619Y-120114190D01*
X153924000Y-120090380D01*
X153900190Y-120066571D01*
X154685904Y-120114190D02*
X154400190Y-120114190D01*
X154543047Y-120114190D02*
X154543047Y-119614190D01*
X154495428Y-119685619D01*
X154447809Y-119733238D01*
X154400190Y-119757047D01*
X175406857Y-119903714D02*
X175740190Y-119903714D01*
X175454476Y-119903714D02*
X175430666Y-119879904D01*
X175406857Y-119832285D01*
X175406857Y-119760857D01*
X175430666Y-119713238D01*
X175478285Y-119689428D01*
X175740190Y-119689428D01*
X175478285Y-119284666D02*
X175478285Y-119451333D01*
X175740190Y-119451333D02*
X175240190Y-119451333D01*
X175240190Y-119213238D01*
X175740190Y-118808476D02*
X175478285Y-118808476D01*
X175430666Y-118832285D01*
X175406857Y-118879904D01*
X175406857Y-118975142D01*
X175430666Y-119022761D01*
X175716380Y-118808476D02*
X175740190Y-118856095D01*
X175740190Y-118975142D01*
X175716380Y-119022761D01*
X175668761Y-119046571D01*
X175621142Y-119046571D01*
X175573523Y-119022761D01*
X175549714Y-118975142D01*
X175549714Y-118856095D01*
X175525904Y-118808476D01*
X175406857Y-118356095D02*
X175740190Y-118356095D01*
X175406857Y-118570380D02*
X175668761Y-118570380D01*
X175716380Y-118546571D01*
X175740190Y-118498952D01*
X175740190Y-118427523D01*
X175716380Y-118379904D01*
X175692571Y-118356095D01*
X175740190Y-118046571D02*
X175716380Y-118094190D01*
X175668761Y-118118000D01*
X175240190Y-118118000D01*
X175406857Y-117927523D02*
X175406857Y-117737047D01*
X175240190Y-117856095D02*
X175668761Y-117856095D01*
X175716380Y-117832285D01*
X175740190Y-117784666D01*
X175740190Y-117737047D01*
X175740190Y-117308476D02*
X175740190Y-117594190D01*
X175740190Y-117451333D02*
X175240190Y-117451333D01*
X175311619Y-117498952D01*
X175359238Y-117546571D01*
X175383047Y-117594190D01*
X158265904Y-120241190D02*
X158265904Y-119741190D01*
X158504000Y-120241190D02*
X158504000Y-119741190D01*
X158789714Y-120241190D01*
X158789714Y-119741190D01*
X159004000Y-119788809D02*
X159027809Y-119765000D01*
X159075428Y-119741190D01*
X159194476Y-119741190D01*
X159242095Y-119765000D01*
X159265904Y-119788809D01*
X159289714Y-119836428D01*
X159289714Y-119884047D01*
X159265904Y-119955476D01*
X158980190Y-120241190D01*
X159289714Y-120241190D01*
X159480190Y-119788809D02*
X159504000Y-119765000D01*
X159551619Y-119741190D01*
X159670666Y-119741190D01*
X159718285Y-119765000D01*
X159742095Y-119788809D01*
X159765904Y-119836428D01*
X159765904Y-119884047D01*
X159742095Y-119955476D01*
X159456380Y-120241190D01*
X159765904Y-120241190D01*
X163957047Y-119511000D02*
X163909428Y-119487190D01*
X163838000Y-119487190D01*
X163766571Y-119511000D01*
X163718952Y-119558619D01*
X163695142Y-119606238D01*
X163671333Y-119701476D01*
X163671333Y-119772904D01*
X163695142Y-119868142D01*
X163718952Y-119915761D01*
X163766571Y-119963380D01*
X163838000Y-119987190D01*
X163885619Y-119987190D01*
X163957047Y-119963380D01*
X163980857Y-119939571D01*
X163980857Y-119772904D01*
X163885619Y-119772904D01*
X164195142Y-119987190D02*
X164195142Y-119487190D01*
X164480857Y-119987190D01*
X164480857Y-119487190D01*
X164718952Y-119987190D02*
X164718952Y-119487190D01*
X164838000Y-119487190D01*
X164909428Y-119511000D01*
X164957047Y-119558619D01*
X164980857Y-119606238D01*
X165004666Y-119701476D01*
X165004666Y-119772904D01*
X164980857Y-119868142D01*
X164957047Y-119915761D01*
X164909428Y-119963380D01*
X164838000Y-119987190D01*
X164718952Y-119987190D01*
X167659857Y-120157714D02*
X167993190Y-120157714D01*
X167707476Y-120157714D02*
X167683666Y-120133904D01*
X167659857Y-120086285D01*
X167659857Y-120014857D01*
X167683666Y-119967238D01*
X167731285Y-119943428D01*
X167993190Y-119943428D01*
X167731285Y-119538666D02*
X167731285Y-119705333D01*
X167993190Y-119705333D02*
X167493190Y-119705333D01*
X167493190Y-119467238D01*
X167993190Y-119062476D02*
X167731285Y-119062476D01*
X167683666Y-119086285D01*
X167659857Y-119133904D01*
X167659857Y-119229142D01*
X167683666Y-119276761D01*
X167969380Y-119062476D02*
X167993190Y-119110095D01*
X167993190Y-119229142D01*
X167969380Y-119276761D01*
X167921761Y-119300571D01*
X167874142Y-119300571D01*
X167826523Y-119276761D01*
X167802714Y-119229142D01*
X167802714Y-119110095D01*
X167778904Y-119062476D01*
X167659857Y-118610095D02*
X167993190Y-118610095D01*
X167659857Y-118824380D02*
X167921761Y-118824380D01*
X167969380Y-118800571D01*
X167993190Y-118752952D01*
X167993190Y-118681523D01*
X167969380Y-118633904D01*
X167945571Y-118610095D01*
X167993190Y-118300571D02*
X167969380Y-118348190D01*
X167921761Y-118372000D01*
X167493190Y-118372000D01*
X167659857Y-118181523D02*
X167659857Y-117991047D01*
X167493190Y-118110095D02*
X167921761Y-118110095D01*
X167969380Y-118086285D01*
X167993190Y-118038666D01*
X167993190Y-117991047D01*
X167540809Y-117848190D02*
X167517000Y-117824380D01*
X167493190Y-117776761D01*
X167493190Y-117657714D01*
X167517000Y-117610095D01*
X167540809Y-117586285D01*
X167588428Y-117562476D01*
X167636047Y-117562476D01*
X167707476Y-117586285D01*
X167993190Y-117872000D01*
X167993190Y-117562476D01*
D11*
X143200809Y-116149380D02*
X143200809Y-115149380D01*
X143581761Y-115149380D01*
X143677000Y-115197000D01*
X143724619Y-115244619D01*
X143772238Y-115339857D01*
X143772238Y-115482714D01*
X143724619Y-115577952D01*
X143677000Y-115625571D01*
X143581761Y-115673190D01*
X143200809Y-115673190D01*
X144200809Y-116149380D02*
X144200809Y-115149380D01*
X144629380Y-116149380D02*
X144629380Y-115625571D01*
X144581761Y-115530333D01*
X144486523Y-115482714D01*
X144343666Y-115482714D01*
X144248428Y-115530333D01*
X144200809Y-115577952D01*
X145534142Y-116149380D02*
X145534142Y-115625571D01*
X145486523Y-115530333D01*
X145391285Y-115482714D01*
X145200809Y-115482714D01*
X145105571Y-115530333D01*
X145534142Y-116101761D02*
X145438904Y-116149380D01*
X145200809Y-116149380D01*
X145105571Y-116101761D01*
X145057952Y-116006523D01*
X145057952Y-115911285D01*
X145105571Y-115816047D01*
X145200809Y-115768428D01*
X145438904Y-115768428D01*
X145534142Y-115720809D01*
X145962714Y-116101761D02*
X146057952Y-116149380D01*
X146248428Y-116149380D01*
X146343666Y-116101761D01*
X146391285Y-116006523D01*
X146391285Y-115958904D01*
X146343666Y-115863666D01*
X146248428Y-115816047D01*
X146105571Y-115816047D01*
X146010333Y-115768428D01*
X145962714Y-115673190D01*
X145962714Y-115625571D01*
X146010333Y-115530333D01*
X146105571Y-115482714D01*
X146248428Y-115482714D01*
X146343666Y-115530333D01*
X147200809Y-116101761D02*
X147105571Y-116149380D01*
X146915095Y-116149380D01*
X146819857Y-116101761D01*
X146772238Y-116006523D01*
X146772238Y-115625571D01*
X146819857Y-115530333D01*
X146915095Y-115482714D01*
X147105571Y-115482714D01*
X147200809Y-115530333D01*
X147248428Y-115625571D01*
X147248428Y-115720809D01*
X146772238Y-115816047D01*
X148248428Y-116054142D02*
X148200809Y-116101761D01*
X148057952Y-116149380D01*
X147962714Y-116149380D01*
X147819857Y-116101761D01*
X147724619Y-116006523D01*
X147677000Y-115911285D01*
X147629380Y-115720809D01*
X147629380Y-115577952D01*
X147677000Y-115387476D01*
X147724619Y-115292238D01*
X147819857Y-115197000D01*
X147962714Y-115149380D01*
X148057952Y-115149380D01*
X148200809Y-115197000D01*
X148248428Y-115244619D01*
X148629380Y-115244619D02*
X148677000Y-115197000D01*
X148772238Y-115149380D01*
X149010333Y-115149380D01*
X149105571Y-115197000D01*
X149153190Y-115244619D01*
X149200809Y-115339857D01*
X149200809Y-115435095D01*
X149153190Y-115577952D01*
X148581761Y-116149380D01*
X149200809Y-116149380D01*
D10*
X177946857Y-119860047D02*
X178280190Y-119860047D01*
X177994476Y-119860047D02*
X177970666Y-119836238D01*
X177946857Y-119788619D01*
X177946857Y-119717190D01*
X177970666Y-119669571D01*
X178018285Y-119645761D01*
X178280190Y-119645761D01*
X178256380Y-119431476D02*
X178280190Y-119360047D01*
X178280190Y-119241000D01*
X178256380Y-119193380D01*
X178232571Y-119169571D01*
X178184952Y-119145761D01*
X178137333Y-119145761D01*
X178089714Y-119169571D01*
X178065904Y-119193380D01*
X178042095Y-119241000D01*
X178018285Y-119336238D01*
X177994476Y-119383857D01*
X177970666Y-119407666D01*
X177923047Y-119431476D01*
X177875428Y-119431476D01*
X177827809Y-119407666D01*
X177804000Y-119383857D01*
X177780190Y-119336238D01*
X177780190Y-119217190D01*
X177804000Y-119145761D01*
X178280190Y-118860047D02*
X178256380Y-118907666D01*
X178208761Y-118931476D01*
X177780190Y-118931476D01*
X178256380Y-118479095D02*
X178280190Y-118526714D01*
X178280190Y-118621952D01*
X178256380Y-118669571D01*
X178208761Y-118693380D01*
X178018285Y-118693380D01*
X177970666Y-118669571D01*
X177946857Y-118621952D01*
X177946857Y-118526714D01*
X177970666Y-118479095D01*
X178018285Y-118455285D01*
X178065904Y-118455285D01*
X178113523Y-118693380D01*
X178256380Y-118050523D02*
X178280190Y-118098142D01*
X178280190Y-118193380D01*
X178256380Y-118241000D01*
X178208761Y-118264809D01*
X178018285Y-118264809D01*
X177970666Y-118241000D01*
X177946857Y-118193380D01*
X177946857Y-118098142D01*
X177970666Y-118050523D01*
X178018285Y-118026714D01*
X178065904Y-118026714D01*
X178113523Y-118264809D01*
X177946857Y-117812428D02*
X178446857Y-117812428D01*
X177970666Y-117812428D02*
X177946857Y-117764809D01*
X177946857Y-117669571D01*
X177970666Y-117621952D01*
X177994476Y-117598142D01*
X178042095Y-117574333D01*
X178184952Y-117574333D01*
X178232571Y-117598142D01*
X178256380Y-117621952D01*
X178280190Y-117669571D01*
X178280190Y-117764809D01*
X178256380Y-117812428D01*
X178280190Y-117098142D02*
X178280190Y-117383857D01*
X178280190Y-117241000D02*
X177780190Y-117241000D01*
X177851619Y-117288619D01*
X177899238Y-117336238D01*
X177923047Y-117383857D01*
X160805904Y-120241190D02*
X160805904Y-119741190D01*
X161044000Y-120241190D02*
X161044000Y-119741190D01*
X161329714Y-120241190D01*
X161329714Y-119741190D01*
X161520190Y-119741190D02*
X161829714Y-119741190D01*
X161663047Y-119931666D01*
X161734476Y-119931666D01*
X161782095Y-119955476D01*
X161805904Y-119979285D01*
X161829714Y-120026904D01*
X161829714Y-120145952D01*
X161805904Y-120193571D01*
X161782095Y-120217380D01*
X161734476Y-120241190D01*
X161591619Y-120241190D01*
X161544000Y-120217380D01*
X161520190Y-120193571D01*
X162020190Y-119788809D02*
X162044000Y-119765000D01*
X162091619Y-119741190D01*
X162210666Y-119741190D01*
X162258285Y-119765000D01*
X162282095Y-119788809D01*
X162305904Y-119836428D01*
X162305904Y-119884047D01*
X162282095Y-119955476D01*
X161996380Y-120241190D01*
X162305904Y-120241190D01*
D11*
X143272238Y-111069380D02*
X143272238Y-110069380D01*
X143653190Y-110069380D01*
X143748428Y-110117000D01*
X143796047Y-110164619D01*
X143843666Y-110259857D01*
X143843666Y-110402714D01*
X143796047Y-110497952D01*
X143748428Y-110545571D01*
X143653190Y-110593190D01*
X143272238Y-110593190D01*
X144272238Y-111069380D02*
X144272238Y-110069380D01*
X144700809Y-111069380D02*
X144700809Y-110545571D01*
X144653190Y-110450333D01*
X144557952Y-110402714D01*
X144415095Y-110402714D01*
X144319857Y-110450333D01*
X144272238Y-110497952D01*
X145605571Y-111069380D02*
X145605571Y-110545571D01*
X145557952Y-110450333D01*
X145462714Y-110402714D01*
X145272238Y-110402714D01*
X145177000Y-110450333D01*
X145605571Y-111021761D02*
X145510333Y-111069380D01*
X145272238Y-111069380D01*
X145177000Y-111021761D01*
X145129380Y-110926523D01*
X145129380Y-110831285D01*
X145177000Y-110736047D01*
X145272238Y-110688428D01*
X145510333Y-110688428D01*
X145605571Y-110640809D01*
X146034142Y-111021761D02*
X146129380Y-111069380D01*
X146319857Y-111069380D01*
X146415095Y-111021761D01*
X146462714Y-110926523D01*
X146462714Y-110878904D01*
X146415095Y-110783666D01*
X146319857Y-110736047D01*
X146177000Y-110736047D01*
X146081761Y-110688428D01*
X146034142Y-110593190D01*
X146034142Y-110545571D01*
X146081761Y-110450333D01*
X146177000Y-110402714D01*
X146319857Y-110402714D01*
X146415095Y-110450333D01*
X147272238Y-111021761D02*
X147177000Y-111069380D01*
X146986523Y-111069380D01*
X146891285Y-111021761D01*
X146843666Y-110926523D01*
X146843666Y-110545571D01*
X146891285Y-110450333D01*
X146986523Y-110402714D01*
X147177000Y-110402714D01*
X147272238Y-110450333D01*
X147319857Y-110545571D01*
X147319857Y-110640809D01*
X146843666Y-110736047D01*
X147700809Y-110783666D02*
X148177000Y-110783666D01*
X147605571Y-111069380D02*
X147938904Y-110069380D01*
X148272238Y-111069380D01*
X148557952Y-110164619D02*
X148605571Y-110117000D01*
X148700809Y-110069380D01*
X148938904Y-110069380D01*
X149034142Y-110117000D01*
X149081761Y-110164619D01*
X149129380Y-110259857D01*
X149129380Y-110355095D01*
X149081761Y-110497952D01*
X148510333Y-111069380D01*
X149129380Y-111069380D01*
X143200809Y-100782380D02*
X143200809Y-99782380D01*
X143581761Y-99782380D01*
X143677000Y-99830000D01*
X143724619Y-99877619D01*
X143772238Y-99972857D01*
X143772238Y-100115714D01*
X143724619Y-100210952D01*
X143677000Y-100258571D01*
X143581761Y-100306190D01*
X143200809Y-100306190D01*
X144200809Y-100782380D02*
X144200809Y-99782380D01*
X144629380Y-100782380D02*
X144629380Y-100258571D01*
X144581761Y-100163333D01*
X144486523Y-100115714D01*
X144343666Y-100115714D01*
X144248428Y-100163333D01*
X144200809Y-100210952D01*
X145534142Y-100782380D02*
X145534142Y-100258571D01*
X145486523Y-100163333D01*
X145391285Y-100115714D01*
X145200809Y-100115714D01*
X145105571Y-100163333D01*
X145534142Y-100734761D02*
X145438904Y-100782380D01*
X145200809Y-100782380D01*
X145105571Y-100734761D01*
X145057952Y-100639523D01*
X145057952Y-100544285D01*
X145105571Y-100449047D01*
X145200809Y-100401428D01*
X145438904Y-100401428D01*
X145534142Y-100353809D01*
X145962714Y-100734761D02*
X146057952Y-100782380D01*
X146248428Y-100782380D01*
X146343666Y-100734761D01*
X146391285Y-100639523D01*
X146391285Y-100591904D01*
X146343666Y-100496666D01*
X146248428Y-100449047D01*
X146105571Y-100449047D01*
X146010333Y-100401428D01*
X145962714Y-100306190D01*
X145962714Y-100258571D01*
X146010333Y-100163333D01*
X146105571Y-100115714D01*
X146248428Y-100115714D01*
X146343666Y-100163333D01*
X147200809Y-100734761D02*
X147105571Y-100782380D01*
X146915095Y-100782380D01*
X146819857Y-100734761D01*
X146772238Y-100639523D01*
X146772238Y-100258571D01*
X146819857Y-100163333D01*
X146915095Y-100115714D01*
X147105571Y-100115714D01*
X147200809Y-100163333D01*
X147248428Y-100258571D01*
X147248428Y-100353809D01*
X146772238Y-100449047D01*
X148248428Y-100687142D02*
X148200809Y-100734761D01*
X148057952Y-100782380D01*
X147962714Y-100782380D01*
X147819857Y-100734761D01*
X147724619Y-100639523D01*
X147677000Y-100544285D01*
X147629380Y-100353809D01*
X147629380Y-100210952D01*
X147677000Y-100020476D01*
X147724619Y-99925238D01*
X147819857Y-99830000D01*
X147962714Y-99782380D01*
X148057952Y-99782380D01*
X148200809Y-99830000D01*
X148248428Y-99877619D01*
X149200809Y-100782380D02*
X148629380Y-100782380D01*
X148915095Y-100782380D02*
X148915095Y-99782380D01*
X148819857Y-99925238D01*
X148724619Y-100020476D01*
X148629380Y-100068095D01*
X183975619Y-105862380D02*
X183975619Y-104862380D01*
X184356571Y-104862380D01*
X184451809Y-104910000D01*
X184499428Y-104957619D01*
X184547047Y-105052857D01*
X184547047Y-105195714D01*
X184499428Y-105290952D01*
X184451809Y-105338571D01*
X184356571Y-105386190D01*
X183975619Y-105386190D01*
X184880380Y-104862380D02*
X185118476Y-105862380D01*
X185308952Y-105148095D01*
X185499428Y-105862380D01*
X185737523Y-104862380D01*
X186689904Y-105862380D02*
X186356571Y-105386190D01*
X186118476Y-105862380D02*
X186118476Y-104862380D01*
X186499428Y-104862380D01*
X186594666Y-104910000D01*
X186642285Y-104957619D01*
X186689904Y-105052857D01*
X186689904Y-105195714D01*
X186642285Y-105290952D01*
X186594666Y-105338571D01*
X186499428Y-105386190D01*
X186118476Y-105386190D01*
X187118476Y-105481428D02*
X187880380Y-105481428D01*
D10*
X172739857Y-120114047D02*
X173073190Y-120114047D01*
X172787476Y-120114047D02*
X172763666Y-120090238D01*
X172739857Y-120042619D01*
X172739857Y-119971190D01*
X172763666Y-119923571D01*
X172811285Y-119899761D01*
X173073190Y-119899761D01*
X173073190Y-119375952D02*
X172835095Y-119542619D01*
X173073190Y-119661666D02*
X172573190Y-119661666D01*
X172573190Y-119471190D01*
X172597000Y-119423571D01*
X172620809Y-119399761D01*
X172668428Y-119375952D01*
X172739857Y-119375952D01*
X172787476Y-119399761D01*
X172811285Y-119423571D01*
X172835095Y-119471190D01*
X172835095Y-119661666D01*
X173049380Y-118971190D02*
X173073190Y-119018809D01*
X173073190Y-119114047D01*
X173049380Y-119161666D01*
X173001761Y-119185476D01*
X172811285Y-119185476D01*
X172763666Y-119161666D01*
X172739857Y-119114047D01*
X172739857Y-119018809D01*
X172763666Y-118971190D01*
X172811285Y-118947380D01*
X172858904Y-118947380D01*
X172906523Y-119185476D01*
X173049380Y-118756904D02*
X173073190Y-118709285D01*
X173073190Y-118614047D01*
X173049380Y-118566428D01*
X173001761Y-118542619D01*
X172977952Y-118542619D01*
X172930333Y-118566428D01*
X172906523Y-118614047D01*
X172906523Y-118685476D01*
X172882714Y-118733095D01*
X172835095Y-118756904D01*
X172811285Y-118756904D01*
X172763666Y-118733095D01*
X172739857Y-118685476D01*
X172739857Y-118614047D01*
X172763666Y-118566428D01*
X173049380Y-118137857D02*
X173073190Y-118185476D01*
X173073190Y-118280714D01*
X173049380Y-118328333D01*
X173001761Y-118352142D01*
X172811285Y-118352142D01*
X172763666Y-118328333D01*
X172739857Y-118280714D01*
X172739857Y-118185476D01*
X172763666Y-118137857D01*
X172811285Y-118114047D01*
X172858904Y-118114047D01*
X172906523Y-118352142D01*
X172739857Y-117971190D02*
X172739857Y-117780714D01*
X172573190Y-117899761D02*
X173001761Y-117899761D01*
X173049380Y-117875952D01*
X173073190Y-117828333D01*
X173073190Y-117780714D01*
X172620809Y-117637857D02*
X172597000Y-117614047D01*
X172573190Y-117566428D01*
X172573190Y-117447380D01*
X172597000Y-117399761D01*
X172620809Y-117375952D01*
X172668428Y-117352142D01*
X172716047Y-117352142D01*
X172787476Y-117375952D01*
X173073190Y-117661666D01*
X173073190Y-117352142D01*
X155725904Y-120114190D02*
X155725904Y-119614190D01*
X155964000Y-120114190D02*
X155964000Y-119614190D01*
X156249714Y-120114190D01*
X156249714Y-119614190D01*
X156749714Y-120114190D02*
X156464000Y-120114190D01*
X156606857Y-120114190D02*
X156606857Y-119614190D01*
X156559238Y-119685619D01*
X156511619Y-119733238D01*
X156464000Y-119757047D01*
X156940190Y-119661809D02*
X156964000Y-119638000D01*
X157011619Y-119614190D01*
X157130666Y-119614190D01*
X157178285Y-119638000D01*
X157202095Y-119661809D01*
X157225904Y-119709428D01*
X157225904Y-119757047D01*
X157202095Y-119828476D01*
X156916380Y-120114190D01*
X157225904Y-120114190D01*
D11*
X143145238Y-95829380D02*
X143145238Y-94829380D01*
X143526190Y-94829380D01*
X143621428Y-94877000D01*
X143669047Y-94924619D01*
X143716666Y-95019857D01*
X143716666Y-95162714D01*
X143669047Y-95257952D01*
X143621428Y-95305571D01*
X143526190Y-95353190D01*
X143145238Y-95353190D01*
X144145238Y-95829380D02*
X144145238Y-94829380D01*
X144573809Y-95829380D02*
X144573809Y-95305571D01*
X144526190Y-95210333D01*
X144430952Y-95162714D01*
X144288095Y-95162714D01*
X144192857Y-95210333D01*
X144145238Y-95257952D01*
X145478571Y-95829380D02*
X145478571Y-95305571D01*
X145430952Y-95210333D01*
X145335714Y-95162714D01*
X145145238Y-95162714D01*
X145050000Y-95210333D01*
X145478571Y-95781761D02*
X145383333Y-95829380D01*
X145145238Y-95829380D01*
X145050000Y-95781761D01*
X145002380Y-95686523D01*
X145002380Y-95591285D01*
X145050000Y-95496047D01*
X145145238Y-95448428D01*
X145383333Y-95448428D01*
X145478571Y-95400809D01*
X145907142Y-95781761D02*
X146002380Y-95829380D01*
X146192857Y-95829380D01*
X146288095Y-95781761D01*
X146335714Y-95686523D01*
X146335714Y-95638904D01*
X146288095Y-95543666D01*
X146192857Y-95496047D01*
X146050000Y-95496047D01*
X145954761Y-95448428D01*
X145907142Y-95353190D01*
X145907142Y-95305571D01*
X145954761Y-95210333D01*
X146050000Y-95162714D01*
X146192857Y-95162714D01*
X146288095Y-95210333D01*
X147145238Y-95781761D02*
X147050000Y-95829380D01*
X146859523Y-95829380D01*
X146764285Y-95781761D01*
X146716666Y-95686523D01*
X146716666Y-95305571D01*
X146764285Y-95210333D01*
X146859523Y-95162714D01*
X147050000Y-95162714D01*
X147145238Y-95210333D01*
X147192857Y-95305571D01*
X147192857Y-95400809D01*
X146716666Y-95496047D01*
X147573809Y-95543666D02*
X148050000Y-95543666D01*
X147478571Y-95829380D02*
X147811904Y-94829380D01*
X148145238Y-95829380D01*
X149002380Y-95829380D02*
X148430952Y-95829380D01*
X148716666Y-95829380D02*
X148716666Y-94829380D01*
X148621428Y-94972238D01*
X148526190Y-95067476D01*
X148430952Y-95115095D01*
X140636666Y-92438180D02*
X140636666Y-93152466D01*
X140589047Y-93295323D01*
X140493809Y-93390561D01*
X140350952Y-93438180D01*
X140255714Y-93438180D01*
X141541428Y-92771514D02*
X141541428Y-93438180D01*
X141303333Y-92390561D02*
X141065238Y-93104847D01*
X141684285Y-93104847D01*
X181189380Y-118951333D02*
X181903666Y-118951333D01*
X182046523Y-118998952D01*
X182141761Y-119094190D01*
X182189380Y-119237047D01*
X182189380Y-119332285D01*
X181189380Y-118046571D02*
X181189380Y-118237047D01*
X181237000Y-118332285D01*
X181284619Y-118379904D01*
X181427476Y-118475142D01*
X181617952Y-118522761D01*
X181998904Y-118522761D01*
X182094142Y-118475142D01*
X182141761Y-118427523D01*
X182189380Y-118332285D01*
X182189380Y-118141809D01*
X182141761Y-118046571D01*
X182094142Y-117998952D01*
X181998904Y-117951333D01*
X181760809Y-117951333D01*
X181665571Y-117998952D01*
X181617952Y-118046571D01*
X181570333Y-118141809D01*
X181570333Y-118332285D01*
X181617952Y-118427523D01*
X181665571Y-118475142D01*
X181760809Y-118522761D01*
X141478095Y-118872380D02*
X141478095Y-117872380D01*
X141478095Y-118348571D02*
X142049523Y-118348571D01*
X142049523Y-118872380D02*
X142049523Y-117872380D01*
X142478095Y-117967619D02*
X142525714Y-117920000D01*
X142620952Y-117872380D01*
X142859047Y-117872380D01*
X142954285Y-117920000D01*
X143001904Y-117967619D01*
X143049523Y-118062857D01*
X143049523Y-118158095D01*
X143001904Y-118300952D01*
X142430476Y-118872380D01*
X143049523Y-118872380D01*
X151360142Y-106179857D02*
X151407761Y-106227476D01*
X151455380Y-106370333D01*
X151455380Y-106465571D01*
X151407761Y-106608428D01*
X151312523Y-106703666D01*
X151217285Y-106751285D01*
X151026809Y-106798904D01*
X150883952Y-106798904D01*
X150693476Y-106751285D01*
X150598238Y-106703666D01*
X150503000Y-106608428D01*
X150455380Y-106465571D01*
X150455380Y-106370333D01*
X150503000Y-106227476D01*
X150550619Y-106179857D01*
X151455380Y-105227476D02*
X151455380Y-105798904D01*
X151455380Y-105513190D02*
X150455380Y-105513190D01*
X150598238Y-105608428D01*
X150693476Y-105703666D01*
X150741095Y-105798904D01*
X151455380Y-104275095D02*
X151455380Y-104846523D01*
X151455380Y-104560809D02*
X150455380Y-104560809D01*
X150598238Y-104656047D01*
X150693476Y-104751285D01*
X150741095Y-104846523D01*
X153620742Y-115736666D02*
X153668361Y-115784285D01*
X153715980Y-115927142D01*
X153715980Y-116022380D01*
X153668361Y-116165238D01*
X153573123Y-116260476D01*
X153477885Y-116308095D01*
X153287409Y-116355714D01*
X153144552Y-116355714D01*
X152954076Y-116308095D01*
X152858838Y-116260476D01*
X152763600Y-116165238D01*
X152715980Y-116022380D01*
X152715980Y-115927142D01*
X152763600Y-115784285D01*
X152811219Y-115736666D01*
X152715980Y-115403333D02*
X152715980Y-114736666D01*
X153715980Y-115165238D01*
X144780095Y-87066380D02*
X144780095Y-86066380D01*
X144780095Y-86542571D02*
X145351523Y-86542571D01*
X145351523Y-87066380D02*
X145351523Y-86066380D01*
X146351523Y-87066380D02*
X145780095Y-87066380D01*
X146065809Y-87066380D02*
X146065809Y-86066380D01*
X145970571Y-86209238D01*
X145875333Y-86304476D01*
X145780095Y-86352095D01*
X152122142Y-95416666D02*
X152169761Y-95464285D01*
X152217380Y-95607142D01*
X152217380Y-95702380D01*
X152169761Y-95845238D01*
X152074523Y-95940476D01*
X151979285Y-95988095D01*
X151788809Y-96035714D01*
X151645952Y-96035714D01*
X151455476Y-95988095D01*
X151360238Y-95940476D01*
X151265000Y-95845238D01*
X151217380Y-95702380D01*
X151217380Y-95607142D01*
X151265000Y-95464285D01*
X151312619Y-95416666D01*
X151550714Y-94559523D02*
X152217380Y-94559523D01*
X151169761Y-94797619D02*
X151884047Y-95035714D01*
X151884047Y-94416666D01*
X175584742Y-111418666D02*
X175632361Y-111466285D01*
X175679980Y-111609142D01*
X175679980Y-111704380D01*
X175632361Y-111847238D01*
X175537123Y-111942476D01*
X175441885Y-111990095D01*
X175251409Y-112037714D01*
X175108552Y-112037714D01*
X174918076Y-111990095D01*
X174822838Y-111942476D01*
X174727600Y-111847238D01*
X174679980Y-111704380D01*
X174679980Y-111609142D01*
X174727600Y-111466285D01*
X174775219Y-111418666D01*
X175679980Y-110942476D02*
X175679980Y-110752000D01*
X175632361Y-110656761D01*
X175584742Y-110609142D01*
X175441885Y-110513904D01*
X175251409Y-110466285D01*
X174870457Y-110466285D01*
X174775219Y-110513904D01*
X174727600Y-110561523D01*
X174679980Y-110656761D01*
X174679980Y-110847238D01*
X174727600Y-110942476D01*
X174775219Y-110990095D01*
X174870457Y-111037714D01*
X175108552Y-111037714D01*
X175203790Y-110990095D01*
X175251409Y-110942476D01*
X175299028Y-110847238D01*
X175299028Y-110656761D01*
X175251409Y-110561523D01*
X175203790Y-110513904D01*
X175108552Y-110466285D01*
X158354780Y-119002133D02*
X159069066Y-119002133D01*
X159211923Y-119049752D01*
X159307161Y-119144990D01*
X159354780Y-119287847D01*
X159354780Y-119383085D01*
X159354780Y-118002133D02*
X159354780Y-118573561D01*
X159354780Y-118287847D02*
X158354780Y-118287847D01*
X158497638Y-118383085D01*
X158592876Y-118478323D01*
X158640495Y-118573561D01*
X156624795Y-90548580D02*
X156624795Y-91358104D01*
X156672414Y-91453342D01*
X156720033Y-91500961D01*
X156815271Y-91548580D01*
X157005747Y-91548580D01*
X157100985Y-91500961D01*
X157148604Y-91453342D01*
X157196223Y-91358104D01*
X157196223Y-90548580D01*
X158196223Y-91548580D02*
X157624795Y-91548580D01*
X157910509Y-91548580D02*
X157910509Y-90548580D01*
X157815271Y-90691438D01*
X157720033Y-90786676D01*
X157624795Y-90834295D01*
X154754342Y-105513142D02*
X154706723Y-105560761D01*
X154563866Y-105608380D01*
X154468628Y-105608380D01*
X154325771Y-105560761D01*
X154230533Y-105465523D01*
X154182914Y-105370285D01*
X154135295Y-105179809D01*
X154135295Y-105036952D01*
X154182914Y-104846476D01*
X154230533Y-104751238D01*
X154325771Y-104656000D01*
X154468628Y-104608380D01*
X154563866Y-104608380D01*
X154706723Y-104656000D01*
X154754342Y-104703619D01*
X155706723Y-105608380D02*
X155135295Y-105608380D01*
X155421009Y-105608380D02*
X155421009Y-104608380D01*
X155325771Y-104751238D01*
X155230533Y-104846476D01*
X155135295Y-104894095D01*
X156325771Y-104608380D02*
X156421009Y-104608380D01*
X156516247Y-104656000D01*
X156563866Y-104703619D01*
X156611485Y-104798857D01*
X156659104Y-104989333D01*
X156659104Y-105227428D01*
X156611485Y-105417904D01*
X156563866Y-105513142D01*
X156516247Y-105560761D01*
X156421009Y-105608380D01*
X156325771Y-105608380D01*
X156230533Y-105560761D01*
X156182914Y-105513142D01*
X156135295Y-105417904D01*
X156087676Y-105227428D01*
X156087676Y-104989333D01*
X156135295Y-104798857D01*
X156182914Y-104703619D01*
X156230533Y-104656000D01*
X156325771Y-104608380D01*
X147788333Y-108467142D02*
X147740714Y-108514761D01*
X147597857Y-108562380D01*
X147502619Y-108562380D01*
X147359761Y-108514761D01*
X147264523Y-108419523D01*
X147216904Y-108324285D01*
X147169285Y-108133809D01*
X147169285Y-107990952D01*
X147216904Y-107800476D01*
X147264523Y-107705238D01*
X147359761Y-107610000D01*
X147502619Y-107562380D01*
X147597857Y-107562380D01*
X147740714Y-107610000D01*
X147788333Y-107657619D01*
X148359761Y-107990952D02*
X148264523Y-107943333D01*
X148216904Y-107895714D01*
X148169285Y-107800476D01*
X148169285Y-107752857D01*
X148216904Y-107657619D01*
X148264523Y-107610000D01*
X148359761Y-107562380D01*
X148550238Y-107562380D01*
X148645476Y-107610000D01*
X148693095Y-107657619D01*
X148740714Y-107752857D01*
X148740714Y-107800476D01*
X148693095Y-107895714D01*
X148645476Y-107943333D01*
X148550238Y-107990952D01*
X148359761Y-107990952D01*
X148264523Y-108038571D01*
X148216904Y-108086190D01*
X148169285Y-108181428D01*
X148169285Y-108371904D01*
X148216904Y-108467142D01*
X148264523Y-108514761D01*
X148359761Y-108562380D01*
X148550238Y-108562380D01*
X148645476Y-108514761D01*
X148693095Y-108467142D01*
X148740714Y-108371904D01*
X148740714Y-108181428D01*
X148693095Y-108086190D01*
X148645476Y-108038571D01*
X148550238Y-107990952D01*
X140636666Y-107678180D02*
X140636666Y-108392466D01*
X140589047Y-108535323D01*
X140493809Y-108630561D01*
X140350952Y-108678180D01*
X140255714Y-108678180D01*
X141589047Y-107678180D02*
X141112857Y-107678180D01*
X141065238Y-108154371D01*
X141112857Y-108106752D01*
X141208095Y-108059133D01*
X141446190Y-108059133D01*
X141541428Y-108106752D01*
X141589047Y-108154371D01*
X141636666Y-108249609D01*
X141636666Y-108487704D01*
X141589047Y-108582942D01*
X141541428Y-108630561D01*
X141446190Y-108678180D01*
X141208095Y-108678180D01*
X141112857Y-108630561D01*
X141065238Y-108582942D01*
X152538133Y-90984342D02*
X152490514Y-91031961D01*
X152347657Y-91079580D01*
X152252419Y-91079580D01*
X152109561Y-91031961D01*
X152014323Y-90936723D01*
X151966704Y-90841485D01*
X151919085Y-90651009D01*
X151919085Y-90508152D01*
X151966704Y-90317676D01*
X152014323Y-90222438D01*
X152109561Y-90127200D01*
X152252419Y-90079580D01*
X152347657Y-90079580D01*
X152490514Y-90127200D01*
X152538133Y-90174819D01*
X153442895Y-90079580D02*
X152966704Y-90079580D01*
X152919085Y-90555771D01*
X152966704Y-90508152D01*
X153061942Y-90460533D01*
X153300038Y-90460533D01*
X153395276Y-90508152D01*
X153442895Y-90555771D01*
X153490514Y-90651009D01*
X153490514Y-90889104D01*
X153442895Y-90984342D01*
X153395276Y-91031961D01*
X153300038Y-91079580D01*
X153061942Y-91079580D01*
X152966704Y-91031961D01*
X152919085Y-90984342D01*
X153214342Y-105488066D02*
X153261961Y-105535685D01*
X153309580Y-105678542D01*
X153309580Y-105773780D01*
X153261961Y-105916638D01*
X153166723Y-106011876D01*
X153071485Y-106059495D01*
X152881009Y-106107114D01*
X152738152Y-106107114D01*
X152547676Y-106059495D01*
X152452438Y-106011876D01*
X152357200Y-105916638D01*
X152309580Y-105773780D01*
X152309580Y-105678542D01*
X152357200Y-105535685D01*
X152404819Y-105488066D01*
X152404819Y-105107114D02*
X152357200Y-105059495D01*
X152309580Y-104964257D01*
X152309580Y-104726161D01*
X152357200Y-104630923D01*
X152404819Y-104583304D01*
X152500057Y-104535685D01*
X152595295Y-104535685D01*
X152738152Y-104583304D01*
X153309580Y-105154733D01*
X153309580Y-104535685D01*
X184658095Y-118872380D02*
X184658095Y-117872380D01*
X184658095Y-118348571D02*
X185229523Y-118348571D01*
X185229523Y-118872380D02*
X185229523Y-117872380D01*
X186134285Y-118205714D02*
X186134285Y-118872380D01*
X185896190Y-117824761D02*
X185658095Y-118539047D01*
X186277142Y-118539047D01*
X180594095Y-87574380D02*
X180594095Y-86574380D01*
X180594095Y-87050571D02*
X181165523Y-87050571D01*
X181165523Y-87574380D02*
X181165523Y-86574380D01*
X181546476Y-86574380D02*
X182165523Y-86574380D01*
X181832190Y-86955333D01*
X181975047Y-86955333D01*
X182070285Y-87002952D01*
X182117904Y-87050571D01*
X182165523Y-87145809D01*
X182165523Y-87383904D01*
X182117904Y-87479142D01*
X182070285Y-87526761D01*
X181975047Y-87574380D01*
X181689333Y-87574380D01*
X181594095Y-87526761D01*
X181546476Y-87479142D01*
X164069733Y-103531942D02*
X164022114Y-103579561D01*
X163879257Y-103627180D01*
X163784019Y-103627180D01*
X163641161Y-103579561D01*
X163545923Y-103484323D01*
X163498304Y-103389085D01*
X163450685Y-103198609D01*
X163450685Y-103055752D01*
X163498304Y-102865276D01*
X163545923Y-102770038D01*
X163641161Y-102674800D01*
X163784019Y-102627180D01*
X163879257Y-102627180D01*
X164022114Y-102674800D01*
X164069733Y-102722419D01*
X164926876Y-102627180D02*
X164736400Y-102627180D01*
X164641161Y-102674800D01*
X164593542Y-102722419D01*
X164498304Y-102865276D01*
X164450685Y-103055752D01*
X164450685Y-103436704D01*
X164498304Y-103531942D01*
X164545923Y-103579561D01*
X164641161Y-103627180D01*
X164831638Y-103627180D01*
X164926876Y-103579561D01*
X164974495Y-103531942D01*
X165022114Y-103436704D01*
X165022114Y-103198609D01*
X164974495Y-103103371D01*
X164926876Y-103055752D01*
X164831638Y-103008133D01*
X164641161Y-103008133D01*
X164545923Y-103055752D01*
X164498304Y-103103371D01*
X164450685Y-103198609D01*
X158115095Y-105751380D02*
X158115095Y-106560904D01*
X158162714Y-106656142D01*
X158210333Y-106703761D01*
X158305571Y-106751380D01*
X158496047Y-106751380D01*
X158591285Y-106703761D01*
X158638904Y-106656142D01*
X158686523Y-106560904D01*
X158686523Y-105751380D01*
X159115095Y-105846619D02*
X159162714Y-105799000D01*
X159257952Y-105751380D01*
X159496047Y-105751380D01*
X159591285Y-105799000D01*
X159638904Y-105846619D01*
X159686523Y-105941857D01*
X159686523Y-106037095D01*
X159638904Y-106179952D01*
X159067476Y-106751380D01*
X159686523Y-106751380D01*
X166822380Y-116879666D02*
X166346190Y-117213000D01*
X166822380Y-117451095D02*
X165822380Y-117451095D01*
X165822380Y-117070142D01*
X165870000Y-116974904D01*
X165917619Y-116927285D01*
X166012857Y-116879666D01*
X166155714Y-116879666D01*
X166250952Y-116927285D01*
X166298571Y-116974904D01*
X166346190Y-117070142D01*
X166346190Y-117451095D01*
X165917619Y-116498714D02*
X165870000Y-116451095D01*
X165822380Y-116355857D01*
X165822380Y-116117761D01*
X165870000Y-116022523D01*
X165917619Y-115974904D01*
X166012857Y-115927285D01*
X166108095Y-115927285D01*
X166250952Y-115974904D01*
X166822380Y-116546333D01*
X166822380Y-115927285D01*
X175584742Y-97641966D02*
X175632361Y-97689585D01*
X175679980Y-97832442D01*
X175679980Y-97927680D01*
X175632361Y-98070538D01*
X175537123Y-98165776D01*
X175441885Y-98213395D01*
X175251409Y-98261014D01*
X175108552Y-98261014D01*
X174918076Y-98213395D01*
X174822838Y-98165776D01*
X174727600Y-98070538D01*
X174679980Y-97927680D01*
X174679980Y-97832442D01*
X174727600Y-97689585D01*
X174775219Y-97641966D01*
X174679980Y-97308633D02*
X174679980Y-96689585D01*
X175060933Y-97022919D01*
X175060933Y-96880061D01*
X175108552Y-96784823D01*
X175156171Y-96737204D01*
X175251409Y-96689585D01*
X175489504Y-96689585D01*
X175584742Y-96737204D01*
X175632361Y-96784823D01*
X175679980Y-96880061D01*
X175679980Y-97165776D01*
X175632361Y-97261014D01*
X175584742Y-97308633D01*
X146950133Y-89333342D02*
X146902514Y-89380961D01*
X146759657Y-89428580D01*
X146664419Y-89428580D01*
X146521561Y-89380961D01*
X146426323Y-89285723D01*
X146378704Y-89190485D01*
X146331085Y-89000009D01*
X146331085Y-88857152D01*
X146378704Y-88666676D01*
X146426323Y-88571438D01*
X146521561Y-88476200D01*
X146664419Y-88428580D01*
X146759657Y-88428580D01*
X146902514Y-88476200D01*
X146950133Y-88523819D01*
X147902514Y-89428580D02*
X147331085Y-89428580D01*
X147616800Y-89428580D02*
X147616800Y-88428580D01*
X147521561Y-88571438D01*
X147426323Y-88666676D01*
X147331085Y-88714295D01*
X165552380Y-100699866D02*
X165076190Y-101033200D01*
X165552380Y-101271295D02*
X164552380Y-101271295D01*
X164552380Y-100890342D01*
X164600000Y-100795104D01*
X164647619Y-100747485D01*
X164742857Y-100699866D01*
X164885714Y-100699866D01*
X164980952Y-100747485D01*
X165028571Y-100795104D01*
X165076190Y-100890342D01*
X165076190Y-101271295D01*
X165552380Y-99747485D02*
X165552380Y-100318914D01*
X165552380Y-100033200D02*
X164552380Y-100033200D01*
X164695238Y-100128438D01*
X164790476Y-100223676D01*
X164838095Y-100318914D01*
X164406342Y-119076742D02*
X164358723Y-119124361D01*
X164215866Y-119171980D01*
X164120628Y-119171980D01*
X163977771Y-119124361D01*
X163882533Y-119029123D01*
X163834914Y-118933885D01*
X163787295Y-118743409D01*
X163787295Y-118600552D01*
X163834914Y-118410076D01*
X163882533Y-118314838D01*
X163977771Y-118219600D01*
X164120628Y-118171980D01*
X164215866Y-118171980D01*
X164358723Y-118219600D01*
X164406342Y-118267219D01*
X165358723Y-119171980D02*
X164787295Y-119171980D01*
X165073009Y-119171980D02*
X165073009Y-118171980D01*
X164977771Y-118314838D01*
X164882533Y-118410076D01*
X164787295Y-118457695D01*
X165739676Y-118267219D02*
X165787295Y-118219600D01*
X165882533Y-118171980D01*
X166120628Y-118171980D01*
X166215866Y-118219600D01*
X166263485Y-118267219D01*
X166311104Y-118362457D01*
X166311104Y-118457695D01*
X166263485Y-118600552D01*
X165692057Y-119171980D01*
X166311104Y-119171980D01*
D12*
X139640000Y-95315800D02*
X139640000Y-93985800D01*
X139640000Y-101725800D02*
X142300000Y-101725800D01*
X142300000Y-96585800D02*
X142300000Y-101725800D01*
X139640000Y-96585800D02*
X142300000Y-96585800D01*
X139640000Y-93985800D02*
X140970000Y-93985800D01*
X139640000Y-96585800D02*
X139640000Y-101725800D01*
X181813200Y-120135800D02*
X181813200Y-121405800D01*
X180383200Y-125505800D02*
X180383200Y-131505800D01*
X170763200Y-125505800D02*
X170763200Y-131505800D01*
X168223200Y-125505800D02*
X168223200Y-131505800D01*
X173303200Y-125505800D02*
X173303200Y-131505800D01*
X167463200Y-131505800D02*
X167463200Y-125505800D01*
X170763200Y-122448729D02*
X170763200Y-122845800D01*
X166513200Y-125505800D02*
X181873200Y-125505800D01*
X175083200Y-131505800D02*
X175083200Y-125505800D01*
X175843200Y-125505800D02*
X175843200Y-131505800D01*
X180623200Y-125505800D02*
X180623200Y-131505800D01*
X174193200Y-122845800D02*
X174193200Y-125505800D01*
X171653200Y-122845800D02*
X171653200Y-125505800D01*
X180743200Y-125505800D02*
X180743200Y-131505800D01*
X180163200Y-131505800D02*
X180163200Y-125505800D01*
X181873200Y-125505800D02*
X181873200Y-122845800D01*
X178383200Y-131505800D02*
X177623200Y-131505800D01*
X178383200Y-125505800D02*
X178383200Y-131505800D01*
X179273200Y-122845800D02*
X179273200Y-125505800D01*
X180863200Y-125505800D02*
X180863200Y-131505800D01*
X175083200Y-122448729D02*
X175083200Y-122845800D01*
X170003200Y-131505800D02*
X170003200Y-125505800D01*
X168223200Y-131505800D02*
X167463200Y-131505800D01*
X172543200Y-131505800D02*
X172543200Y-125505800D01*
X181873200Y-122845800D02*
X166513200Y-122845800D01*
X178383200Y-122448729D02*
X178383200Y-122845800D01*
X168223200Y-122448729D02*
X168223200Y-122845800D01*
X167463200Y-122448729D02*
X167463200Y-122845800D01*
X177623200Y-122448729D02*
X177623200Y-122845800D01*
X169113200Y-122845800D02*
X169113200Y-125505800D01*
X173303200Y-131505800D02*
X172543200Y-131505800D01*
X175843200Y-122448729D02*
X175843200Y-122845800D01*
X180923200Y-131505800D02*
X180163200Y-131505800D01*
X180163200Y-122515800D02*
X180163200Y-122845800D01*
X180543200Y-120135800D02*
X181813200Y-120135800D01*
X175843200Y-131505800D02*
X175083200Y-131505800D01*
X180923200Y-122515800D02*
X180923200Y-122845800D01*
X180923200Y-125505800D02*
X180923200Y-131505800D01*
X166513200Y-122845800D02*
X166513200Y-125505800D01*
X176733200Y-122845800D02*
X176733200Y-125505800D01*
X170003200Y-122448729D02*
X170003200Y-122845800D01*
X170763200Y-131505800D02*
X170003200Y-131505800D01*
X177623200Y-131505800D02*
X177623200Y-125505800D01*
X173303200Y-122448729D02*
X173303200Y-122845800D01*
X180263200Y-125505800D02*
X180263200Y-131505800D01*
X172543200Y-122448729D02*
X172543200Y-122845800D01*
X180503200Y-125505800D02*
X180503200Y-131505800D01*
X151832700Y-108293780D02*
X151832700Y-108012620D01*
X152852700Y-108293780D02*
X152852700Y-108012620D01*
X152652000Y-117918620D02*
X152652000Y-118199780D01*
X153672000Y-117918620D02*
X153672000Y-118199780D01*
X151382000Y-92850580D02*
X151382000Y-92569420D01*
X152402000Y-92850580D02*
X152402000Y-92569420D01*
X173037600Y-106252000D02*
X172037600Y-106252000D01*
X172537600Y-105752000D02*
X172537600Y-106752000D01*
X165767600Y-115512000D02*
X168517600Y-115512000D01*
X166832037Y-106992000D02*
X168517600Y-106992000D01*
X174287600Y-108056437D02*
X174287600Y-115512000D01*
X173223163Y-106992000D02*
X171537600Y-106992000D01*
X174287600Y-115512000D02*
X171537600Y-115512000D01*
X173223163Y-106992000D02*
X174287600Y-108056437D01*
X166832037Y-106992000D02*
X165767600Y-108056437D01*
X165767600Y-108056437D02*
X165767600Y-115512000D01*
X159439800Y-131505800D02*
X158679800Y-131505800D01*
X149279800Y-122448729D02*
X149279800Y-122845800D01*
X163859800Y-125505800D02*
X163859800Y-131505800D01*
X161219800Y-122448729D02*
X161219800Y-122845800D01*
X164519800Y-125505800D02*
X164519800Y-131505800D01*
X161979800Y-122448729D02*
X161979800Y-122845800D01*
X162869800Y-122845800D02*
X162869800Y-125505800D01*
X165469800Y-122845800D02*
X147569800Y-122845800D01*
X161979800Y-125505800D02*
X161979800Y-131505800D01*
X164099800Y-125505800D02*
X164099800Y-131505800D01*
X156899800Y-122448729D02*
X156899800Y-122845800D01*
X165409800Y-120135800D02*
X165409800Y-121405800D01*
X164519800Y-122515800D02*
X164519800Y-122845800D01*
X159439800Y-122448729D02*
X159439800Y-122845800D01*
X156899800Y-131505800D02*
X156139800Y-131505800D01*
X149279800Y-131505800D02*
X148519800Y-131505800D01*
X165469800Y-125505800D02*
X165469800Y-122845800D01*
X149279800Y-125505800D02*
X149279800Y-131505800D01*
X153599800Y-122448729D02*
X153599800Y-122845800D01*
X150169800Y-122845800D02*
X150169800Y-125505800D01*
X161219800Y-131505800D02*
X161219800Y-125505800D01*
X164519800Y-131505800D02*
X163759800Y-131505800D01*
X151059800Y-131505800D02*
X151059800Y-125505800D01*
X154359800Y-125505800D02*
X154359800Y-131505800D01*
X152709800Y-122845800D02*
X152709800Y-125505800D01*
X160329800Y-122845800D02*
X160329800Y-125505800D01*
X163759800Y-122515800D02*
X163759800Y-122845800D01*
X159439800Y-125505800D02*
X159439800Y-131505800D01*
X158679800Y-131505800D02*
X158679800Y-125505800D01*
X164139800Y-120135800D02*
X165409800Y-120135800D01*
X148519800Y-131505800D02*
X148519800Y-125505800D01*
X164339800Y-125505800D02*
X164339800Y-131505800D01*
X158679800Y-122448729D02*
X158679800Y-122845800D01*
X151819800Y-125505800D02*
X151819800Y-131505800D01*
X155249800Y-122845800D02*
X155249800Y-125505800D01*
X154359800Y-131505800D02*
X153599800Y-131505800D01*
X156139800Y-131505800D02*
X156139800Y-125505800D01*
X153599800Y-131505800D02*
X153599800Y-125505800D01*
X154359800Y-122448729D02*
X154359800Y-122845800D01*
X161979800Y-131505800D02*
X161219800Y-131505800D01*
X148519800Y-122448729D02*
X148519800Y-122845800D01*
X156899800Y-125505800D02*
X156899800Y-131505800D01*
X163979800Y-125505800D02*
X163979800Y-131505800D01*
X164219800Y-125505800D02*
X164219800Y-131505800D01*
X151819800Y-131505800D02*
X151059800Y-131505800D01*
X151059800Y-122448729D02*
X151059800Y-122845800D01*
X157789800Y-122845800D02*
X157789800Y-125505800D01*
X163759800Y-131505800D02*
X163759800Y-125505800D01*
X151819800Y-122448729D02*
X151819800Y-122845800D01*
X156139800Y-122448729D02*
X156139800Y-122845800D01*
X147569800Y-122845800D02*
X147569800Y-125505800D01*
X147569800Y-125505800D02*
X165469800Y-125505800D01*
X164459800Y-125505800D02*
X164459800Y-131505800D01*
D13*
X155511700Y-92061200D02*
X159911700Y-92061200D01*
X155511700Y-102401200D02*
X159911700Y-102401200D01*
D14*
X153571700Y-92696200D02*
G75*
G03*
X153571700Y-92696200I-100000J0D01*
G01*
D12*
X155572280Y-106935400D02*
X155291120Y-106935400D01*
X155572280Y-105915400D02*
X155291120Y-105915400D01*
X148095580Y-107190000D02*
X147814420Y-107190000D01*
X148095580Y-106170000D02*
X147814420Y-106170000D01*
X139640000Y-111825800D02*
X139640000Y-116965800D01*
X139640000Y-111825800D02*
X142300000Y-111825800D01*
X142300000Y-111825800D02*
X142300000Y-116965800D01*
X139640000Y-116965800D02*
X142300000Y-116965800D01*
X139640000Y-109225800D02*
X140970000Y-109225800D01*
X139640000Y-110555800D02*
X139640000Y-109225800D01*
X155334580Y-91696000D02*
X155053420Y-91696000D01*
X155334580Y-90676000D02*
X155053420Y-90676000D01*
X153418000Y-102640820D02*
X153418000Y-102921980D01*
X152398000Y-102640820D02*
X152398000Y-102921980D01*
X161660520Y-103735600D02*
X161941680Y-103735600D01*
X161660520Y-102715600D02*
X161941680Y-102715600D01*
D13*
X155816500Y-117742800D02*
X160216500Y-117742800D01*
X155816500Y-107402800D02*
X160216500Y-107402800D01*
D14*
X153876500Y-108037800D02*
G75*
G03*
X153876500Y-108037800I-100000J0D01*
G01*
D12*
X163409100Y-116112058D02*
X163409100Y-115637542D01*
X164454100Y-116112058D02*
X164454100Y-115637542D01*
X166832037Y-93215300D02*
X165767600Y-94279737D01*
X173223163Y-93215300D02*
X171537600Y-93215300D01*
X165767600Y-94279737D02*
X165767600Y-101735300D01*
X165767600Y-101735300D02*
X168517600Y-101735300D01*
X174287600Y-101735300D02*
X171537600Y-101735300D01*
X173223163Y-93215300D02*
X174287600Y-94279737D01*
X173037600Y-92475300D02*
X172037600Y-92475300D01*
X166832037Y-93215300D02*
X168517600Y-93215300D01*
X172537600Y-91975300D02*
X172537600Y-92975300D01*
X174287600Y-94279737D02*
X174287600Y-101735300D01*
X147257380Y-89863200D02*
X146976220Y-89863200D01*
X147257380Y-90883200D02*
X146976220Y-90883200D01*
X164250900Y-100872058D02*
X164250900Y-100397542D01*
X163205900Y-100872058D02*
X163205900Y-100397542D01*
X161863720Y-118260400D02*
X162144880Y-118260400D01*
X161863720Y-119280400D02*
X162144880Y-119280400D01*
M02*
